<svg width="583" height="25" viewBox="0 0 583 25" fill="none" xmlns="http://www.w3.org/2000/svg">
<path d="M8.775 23.975L6.45 22.325C6.075 24 4.925 24.5 2.275 24.5C2 24.5 1.925 24.45 1.825 24.2L0.475 21.075C1.6 21.075 2.2 21.025 2.6 20.975C3.1 20.925 3.25 20.775 3.25 20.175V15.65C2.675 15.85 2.1 16.025 1.55 16.175L1.325 16.05L0.375 13.125L0.5 12.9C1.425 12.7 2.35 12.475 3.25 12.25V8.375L0.75 8.45L0.575 8.3V5.575L0.725 5.425L3.25 5.5V0.85L3.425 0.649999H6.275L6.475 0.824998V5.475L8.6 5.425L8.75 5.55V8.325L8.6 8.45L6.475 8.4V11.325C7.275 11.075 8.05 10.825 8.725 10.575L8.775 13.075C8.775 13.525 8.675 13.7 8.275 13.85C7.775 14.05 7.15 14.275 6.475 14.525V15.275L6.6 20.725C6.6 21.25 6.575 21.725 6.5 22.125C8.775 19.275 9.475 15.975 9.475 10.175V6.3L9.4 2.725L9.575 2.55L12.125 3.025C15.375 2.65 18.3 1.925 21.15 1.05H21.4C22.25 1.725 23.1 2.525 23.95 3.525L23.925 3.775C23.225 3.95 22.55 4.125 21.875 4.275C21.975 11.775 22.45 16.65 24.85 21.675L22.425 23.9C22.25 24.05 22.1 24.125 21.975 24.125C21.825 24.125 21.725 24.025 21.65 23.875C19.4 19.1 18.825 13.25 18.725 4.975C18.275 5.05 17.85 5.125 17.4 5.225V15.325L17.525 23.375H14.1L14.225 15.325V5.7C13.725 5.75 13.2 5.825 12.675 5.875V9.95C12.675 16.525 12.025 20.375 9.525 23.875C9.4 24.05 9.325 24.15 9.175 24.15C9.075 24.15 8.95 24.1 8.775 23.975ZM27.76 2.11H47.53L47.14 22.45L42.43 22.06L42.67 18.76L43.6 18.85L43.66 6.13H32.17C32.2 7.12 32.2 8.08 32.2 9.07C32.2 13.54 31.93 17.98 31.42 22.48L27.4 22.21C27.7 17.38 27.79 12.55 27.79 7.51C27.79 5.74 27.79 3.94 27.76 2.11ZM33.76 13.9V11.17H36.25V10.3H34.18V7.57H36.25V6.7H38.86V7.57H41.02V10.3H38.86V11.17H41.44V13.9H33.76ZM41.68 20.5H33.73V14.8H41.68V20.5ZM38.95 17.26H36.61V18.25H38.95V17.26ZM61.2716 7C66.5816 7 69.2216 9.97 69.2216 13.75C69.2216 16.45 67.9016 19.51 65.2916 22.21L62.3816 20.38C64.1816 18.22 65.2916 15.91 65.2916 14.08C65.2916 12.55 64.5116 11.35 62.7116 10.84C62.5616 15.82 61.6016 20.14 56.9216 19.78C54.1916 19.57 52.6316 17.08 52.6316 14.38C52.6316 10.9 55.2116 7 61.2716 7ZM57.3416 16.39C58.7216 16.39 58.9616 14.02 59.0816 10.78C56.8916 11.32 56.0516 13.03 56.0516 14.44C56.0516 15.52 56.5616 16.39 57.3416 16.39ZM89.7466 15.82L85.9366 15.37C86.1766 13.9 86.2366 11.98 86.2066 10.27L75.2866 10.3L75.2266 6.73L90.9766 6.7C90.9466 9.16 90.2866 13.63 89.7466 15.82ZM82.5766 22.42L78.7366 21.7C79.3666 18.37 79.6366 15.1 79.8166 11.59L84.1966 11.86C83.8966 15.31 83.3266 19.03 82.5766 22.42ZM109.175 5.26L111.875 9.13C110.585 10.12 108.455 11.29 106.055 12.49H107.225V22.15H103.535V13.69C101.855 14.47 100.145 15.22 98.6448 15.85L96.9648 12.85C101.375 10.51 105.095 8.11 109.175 5.26ZM132.823 6.64L132.883 10.21L118.753 10.24L118.693 6.67L132.823 6.64ZM133.633 12.01L133.693 15.58H128.323C127.813 18.31 127.153 20.41 126.373 22.45L122.503 21.79C123.013 19.69 123.343 17.68 123.553 15.61H117.943L117.883 12.04L133.633 12.01ZM153.63 13.99L155.73 21.7L151.92 22.48L151.44 20.35L139.95 21.13L139.68 17.62L141.18 17.53C142.5 13.96 143.55 9.1 144.24 5.41L148.74 6.25C148.11 9.28 146.85 13.63 145.44 17.23L150.63 16.87L150.15 14.86L153.63 13.99ZM176.8 16.39L172.78 15.85C172.96 14.44 173.14 12.97 173.11 11.77H169.21C169.21 14.11 169.3 16 169.42 16.66C169.66 17.92 170.56 18.52 172.48 18.52C173.14 18.52 173.92 18.43 174.85 18.31L175.45 22C174.25 22.24 173.14 22.36 172.12 22.36C168.46 22.36 166.21 20.77 165.67 17.68C165.4 16.12 165.19 14.11 165.07 11.8H161.8L161.74 8.23H164.89C164.86 7.39 164.86 6.52 164.83 5.62L169.39 5.44C169.33 6.37 169.3 7.3 169.27 8.23L177.85 8.2C177.82 10.72 177.34 13.9 176.8 16.39ZM191.539 15.37L188.419 15.52L187.969 8.59L191.209 8.47L191.539 15.37ZM187.549 15.64L184.459 15.82L183.859 8.77L187.129 8.65L187.549 15.64ZM193.609 22.39L190.729 21.67C191.989 17.56 192.739 14.26 193.429 9.43L197.179 10.09C196.189 14.89 195.139 18.73 193.609 22.39ZM207.006 5.62V12.01C209.496 12.34 211.836 12.58 213.996 12.73L213.816 16.24C213.186 16.27 212.556 16.27 211.926 16.27C210.276 16.27 208.656 16.21 207.006 16.06V22.15H203.166V5.62H207.006ZM228.322 7C233.632 7 236.272 9.97 236.272 13.75C236.272 16.45 234.952 19.51 232.342 22.21L229.432 20.38C231.232 18.22 232.342 15.91 232.342 14.08C232.342 12.55 231.562 11.35 229.762 10.84C229.612 15.82 228.652 20.14 223.972 19.78C221.242 19.57 219.682 17.08 219.682 14.38C219.682 10.9 222.262 7 228.322 7ZM224.392 16.39C225.772 16.39 226.012 14.02 226.132 10.78C223.942 11.32 223.102 13.03 223.102 14.44C223.102 15.52 223.612 16.39 224.392 16.39ZM242.277 22.36V5.62H246.117V17.44C248.427 16.87 249.747 16.45 252.567 15.22L254.187 18.43C250.317 20.59 246.687 21.82 242.277 22.36ZM267.768 11.41L260.208 11.44L260.178 7.87L267.738 7.84L267.768 11.41ZM265.878 22.63L263.178 19.09C267.528 16.21 270.378 13.63 274.008 9.04L277.278 11.53C273.828 16.15 270.438 19.42 265.878 22.63ZM288.874 6.73L297.904 6.7C297.394 13.6 296.704 18.43 295.954 22.45L292.054 21.91C292.294 20.5 292.504 18.91 292.684 17.29L288.934 16.9L289.414 13.33L293.014 13.66C293.104 12.52 293.194 11.38 293.254 10.27L288.514 10.3C288.154 12.94 287.674 15.64 287.134 18.04L283.264 17.5C283.774 13.81 284.194 9.37 284.404 5.38L288.964 5.65L288.874 6.73ZM321.108 20.83L314.478 22.3C313.518 18.52 312.648 12.16 312.288 6.7L316.518 6.28C316.788 11.83 317.088 15.43 317.418 18.01L320.388 17.32L321.108 20.83ZM307.728 22.42L303.918 21.73C305.028 16.84 305.718 11.68 306.048 6.31L310.458 6.64C310.158 12.1 309.018 18.31 307.728 22.42ZM342.871 7.69L342.931 11.26H340.471C339.991 15.46 339.331 19.18 338.521 22.39L335.011 21.67C335.551 19.45 336.031 15.7 336.271 11.26L333.751 11.29L333.601 16.6H329.761V11.29H327.181L327.121 7.72H329.761V5.62H333.901L333.841 7.72L336.421 7.69C336.451 6.91 336.451 6.13 336.451 5.32L341.011 5.62L340.831 7.69H342.871ZM361.038 16.12H348.618V12.4H361.038V16.12ZM382.03 2.83L382.3 6.79L380.05 7.03L379.63 3.04L382.03 2.83ZM378.88 3.16L379.3 7.09L376.99 7.42L376.3 3.52L378.88 3.16ZM380.95 12.22L371.23 12.25L371.17 13.9C371.02 17.44 372.13 19.09 375.55 19.09C376.66 19.09 378.01 18.91 379.63 18.58L380.23 21.79C378.46 22.15 376.51 22.48 374.65 22.48C370.45 22.48 366.73 20.77 366.73 13.9V5.62L371.5 5.47L371.38 8.68L380.89 8.65L380.95 12.22ZM404.523 19.36L401.463 22.3C399.693 21.1 398.193 19.78 396.393 18.07C394.503 19.72 392.523 21.28 390.663 22.45L388.293 19.84C392.253 16.6 395.403 13.42 397.683 10.27L388.833 10.3L388.773 6.73L402.873 6.7V10.81C401.913 12.31 400.563 13.96 399.003 15.55C400.473 16.78 402.063 17.89 404.523 19.36ZM424.389 7.51L424.269 10.93L416.409 10.96L416.169 12.1C417.669 11.98 418.749 12.4 419.469 13.18C420.549 12.91 421.779 12.7 423.159 12.55L423.309 15.91C422.289 16 421.389 16.09 420.609 16.24V16.72C420.609 17.2 420.579 17.71 420.489 18.22L417.309 18.13C417.399 17.77 417.459 17.44 417.459 17.11V17.05C416.439 17.5 415.989 17.95 415.989 18.34C415.989 18.73 416.469 19 417.219 19.09C417.549 19.12 417.879 19.15 418.209 19.15C419.619 19.15 421.089 18.88 422.529 18.58L422.949 21.67C421.179 22.09 420.099 22.3 418.419 22.3C418.119 22.3 417.789 22.27 417.459 22.27C414.489 22.15 412.329 20.41 412.329 18.43C412.329 17.29 413.019 16.06 414.699 15.01C414.429 14.98 414.129 14.98 413.829 14.98C413.349 14.98 412.809 15.01 412.209 15.07L413.049 10.96H410.529V7.45H413.769L414.189 5.35L417.519 5.77L417.159 7.48L424.389 7.51ZM441.283 0.459998H451.183V8.62H441.283V0.459998ZM436.903 12.07L439.213 11.98L439.363 15.55L436.903 15.64V21.4L431.053 21.01L431.233 17.74L432.913 17.89V15.82L430.183 15.94L430.033 12.34L432.913 12.22V8.8H429.793V5.23H432.913V1.99H436.903V5.23H439.213V8.8H436.903V12.07ZM444.463 3.85H447.913V3.1H444.463V3.85ZM444.463 6.34H447.913V5.59H444.463V6.34ZM451.903 19.36L451.183 22.57C448.453 22.3 445.663 21.82 442.813 21.16L442.663 22.45L439.663 22.15L440.323 14.65L443.593 15.04L443.173 18.31L444.283 18.49V13.45H440.413V9.88H451.783V13.45H447.733V14.77H451.093V17.56H447.733V18.94C449.113 19.12 450.523 19.24 451.903 19.36ZM479.696 7.93V12.85H481.706V17.59H467.486V12.85H469.616V7.93H468.086V3.31H469.616V0.0399984H473.636V3.31H475.676V0.0399984H479.696V3.31H481.346V7.93H479.696ZM462.656 1.81L466.496 4.45C465.716 5.8 464.726 7.36 463.646 8.92L465.416 8.86V20.86L461.366 20.92L461.186 12.52L460.256 13.81L456.716 11.35C458.096 9.46 461.366 4.33 462.656 1.81ZM475.676 7.93H473.636V12.85H475.676V7.93ZM475.946 18.97L479.006 18.13C479.636 19.39 480.296 20.56 480.986 21.58L477.176 22.99C476.726 21.79 476.306 20.47 475.946 18.97ZM472.556 22.72L469.136 22.06C469.466 20.86 469.676 19.6 469.766 18.28L473.546 19.03C473.426 20.35 473.096 21.58 472.556 22.72ZM493.651 22.33C489.571 22.33 486.841 19.15 487.141 15.31L487.831 6.34L491.821 6.7L491.071 16C490.921 17.83 492.061 18.79 493.351 18.79C494.671 18.79 496.141 17.86 496.741 16L500.341 17.47C498.961 20.26 496.591 22.33 493.651 22.33ZM516.814 19.63L513.604 22.09C511.534 20.71 510.034 18.76 510.034 16.51C510.034 14.77 510.964 12.85 513.304 10.96L505.444 11.02V7.51L519.124 7.54V11.89C515.584 13.33 514.234 14.89 514.234 16.3C514.234 17.53 515.284 18.7 516.814 19.63ZM527.179 20.65C525.949 17.98 524.989 11.59 524.839 8.44L528.529 8.35C528.709 11.11 529.219 15.28 529.669 16.6C530.299 16.45 530.989 16.21 531.949 15.97L532.879 19.15C531.439 19.84 529.099 20.38 527.179 20.65ZM539.779 18.46L536.389 18.76C536.209 14.92 535.999 12.76 535.399 9.01L539.269 8.5C539.569 11.41 539.809 13.96 539.809 16.78C539.809 17.32 539.809 17.89 539.779 18.46ZM560.072 11.26L560.102 14.53H555.872C555.872 14.83 555.872 15.13 555.902 15.4C557.132 15.46 558.572 15.58 559.442 15.76L558.962 18.82C558.182 18.58 556.682 18.46 555.782 18.49C555.482 20.74 554.432 22.33 552.002 22.33C549.002 22.33 547.562 20.59 547.562 18.85C547.562 17.11 548.972 15.4 551.762 15.37C551.762 15.1 551.792 14.83 551.792 14.56H547.082L547.052 11.29H551.732C551.732 10.96 551.702 10.63 551.702 10.33H545.882L545.822 7.06H551.492C551.492 6.64 551.462 6.22 551.432 5.77L555.362 5.44C555.392 6.01 555.422 6.52 555.482 7.03H561.272L561.332 10.3H555.692C555.692 10.63 555.722 10.96 555.722 11.26H560.072ZM551.762 19.63C552.182 19.63 552.542 19.27 552.542 18.85C552.542 18.43 552.182 18.07 551.762 18.07C551.342 18.07 550.982 18.43 550.982 18.85C550.982 19.27 551.342 19.63 551.762 19.63ZM582.776 7.72L582.836 10.99H577.826V12.07C577.826 16.06 577.436 19.36 576.836 22.33L573.056 21.79C573.416 20.5 573.506 19.72 573.656 18.79C573.266 18.88 572.876 18.91 572.516 18.91C570.266 18.91 569.246 17.41 569.246 15.85C569.246 14.17 570.446 12.37 572.696 12.37C572.936 12.37 573.176 12.4 573.416 12.43C573.446 11.95 573.446 11.47 573.476 11.02H567.386L567.326 7.75H573.356C573.296 7.03 573.236 6.34 573.116 5.62L577.466 5.2C577.556 6.07 577.646 6.91 577.676 7.72H582.776ZM572.966 16.48C573.356 16.48 573.686 16.15 573.686 15.73C573.686 15.34 573.356 15.01 572.966 15.01C572.546 15.01 572.216 15.34 572.216 15.73C572.216 16.15 572.546 16.48 572.966 16.48Z" fill="#62300C"/>
</svg>
