<svg width="377" height="22" viewBox="0 0 377 22" fill="none" xmlns="http://www.w3.org/2000/svg">
<path d="M14.458 0.239999L17.786 0.656L17.266 2.892L14.25 2.554L14.458 0.239999ZM11.338 0.292L11.676 2.554L8.582 2.892L8.036 0.681999L11.338 0.292ZM0.392 2.086L5.644 2.554L5.384 5.466L0.132 4.998L0.392 2.086ZM8.972 7.572H11.286L11.78 6.48H7.594V3.178H18.384V6.48H14.796L14.016 7.572H16.876V16.386H8.972V7.572ZM18.462 17.556L17.708 20.832C12.612 20.286 8.582 19.662 3.746 18.596C3.59 19.012 3.46 19.376 3.33 19.688L0.132 19.09C0.86 16.802 1.874 11.836 2.264 9.496H0.0800001V6.324L5.852 6.35L5.774 10.536C5.748 12.226 5.254 14.202 4.682 15.97C9.388 16.828 13.47 17.14 18.462 17.556ZM11.65 10.146H14.458V9.6H11.65V10.146ZM11.65 12.2H14.458V11.654H11.65V12.2ZM11.65 14.358H14.458V13.812H11.65V14.358ZM39.2929 12.538H26.4489V0.265998H39.2929V12.538ZM30.4009 3.074V3.75H35.3929V3.074H30.4009ZM30.4009 6.038V6.714H35.3929V6.038H30.4009ZM30.4009 9.08V9.756H35.3929V9.08H30.4009ZM42.1269 16.698H23.9269V13.474H42.1269V16.698ZM39.9949 20.234L35.8349 21.456C35.4449 20.416 35.0549 19.22 34.7429 17.92L38.3569 17.192C38.9029 18.284 39.3969 19.35 39.9949 20.234ZM30.4529 21.456L26.4489 20.78C26.7349 19.74 27.0469 18.518 27.2549 17.374L31.5709 18.024C31.2849 19.168 30.9209 20.468 30.4529 21.456ZM57.138 19.974H52.484V8.404L48.896 9.366L47.726 5.076L57.138 2.554V19.974ZM74.8668 11.394C76.2448 12.304 77.1028 13.63 77.1028 15.294C77.1028 18.44 74.0868 20.442 70.3948 20.442C66.6508 20.442 63.6348 18.44 63.6348 15.294C63.6348 13.63 64.4928 12.304 65.8708 11.394C64.8308 10.484 64.2068 9.21 64.2068 7.728C64.2068 4.608 66.9628 2.684 70.3948 2.684C73.7748 2.684 76.5308 4.608 76.5308 7.728C76.5308 9.21 75.9068 10.484 74.8668 11.394ZM70.4208 6.246C69.0948 6.246 68.0288 7.078 68.0288 8.196C68.0288 9.158 69.0948 10.094 70.4208 10.094C71.7468 10.094 72.8128 9.158 72.8128 8.196C72.8128 7.078 71.7468 6.246 70.4208 6.246ZM70.4208 16.932C71.9288 16.932 73.1508 15.944 73.1508 14.878C73.1508 13.838 71.9288 12.98 70.4208 12.98C68.9128 12.98 67.6908 13.838 67.6908 14.878C67.6908 15.944 68.9128 16.932 70.4208 16.932ZM103.435 5.934V9.236H100.029V12.772H103.253V16.126H100.029V20.624H96.3629V16.126H93.3989V12.772H96.3629V9.236H94.7769C94.6989 9.678 94.5949 10.12 94.4909 10.536L91.5529 10.25C91.8909 8.04 92.0989 5.7 92.2289 3.23L95.5049 3.386C95.4529 4.27 95.4009 5.102 95.2969 5.934H96.3629V0.629998H100.029V5.934H103.435ZM88.2249 2.762L91.5529 5.05C90.8769 6.22 90.0189 7.572 89.0829 8.924L90.6169 8.872V19.272L87.1069 19.324L86.9509 12.044L86.1449 13.162L83.0769 11.03C84.2729 9.392 87.1069 4.946 88.2249 2.762ZM118.394 13.24L122.918 13.032L123.074 16.126L118.472 16.334L118.55 20.104L115.222 20.286L115.014 16.49L110.646 16.698L110.49 13.604L114.832 13.396L114.676 10.666L109.58 10.874L109.424 7.78L114.494 7.572L114.39 5.83L118.238 5.648L118.264 7.416L123.256 7.208L123.412 10.302L118.342 10.51L118.394 13.24ZM136.576 14.254L133.872 14.384L133.482 8.378L136.29 8.274L136.576 14.254ZM133.118 14.488L130.44 14.644L129.92 8.534L132.754 8.43L133.118 14.488ZM138.37 20.338L135.874 19.714C136.966 16.152 137.616 13.292 138.214 9.106L141.464 9.678C140.606 13.838 139.696 17.166 138.37 20.338ZM151.28 5.804V11.342C153.438 11.628 155.466 11.836 157.338 11.966L157.182 15.008C156.636 15.034 156.09 15.034 155.544 15.034C154.114 15.034 152.71 14.982 151.28 14.852V20.13H147.952V5.804H151.28ZM183.872 9.912H189.046V11.758H183.872V17.114H182V11.758H176.826V9.912H182V4.53H183.872V9.912ZM221.189 14.644L217.887 14.254C218.095 12.98 218.147 11.316 218.121 9.834L208.657 9.86L208.605 6.766L222.255 6.74C222.229 8.872 221.657 12.746 221.189 14.644ZM214.975 20.364L211.647 19.74C212.193 16.854 212.427 14.02 212.583 10.978L216.379 11.212C216.119 14.202 215.625 17.426 214.975 20.364ZM235.401 14.254L232.697 14.384L232.307 8.378L235.115 8.274L235.401 14.254ZM231.943 14.488L229.265 14.644L228.745 8.534L231.579 8.43L231.943 14.488ZM237.195 20.338L234.699 19.714C235.791 16.152 236.441 13.292 237.039 9.106L240.289 9.678C239.431 13.838 238.521 17.166 237.195 20.338ZM259.517 5.96C258.295 5.96 257.359 5.024 257.359 3.802C257.359 2.606 258.295 1.67 259.517 1.67C260.713 1.67 261.649 2.606 261.649 3.802C261.649 5.024 260.713 5.96 259.517 5.96ZM259.517 4.452C259.829 4.452 260.115 4.166 260.115 3.828C260.115 3.516 259.829 3.23 259.517 3.23C259.153 3.23 258.867 3.516 258.867 3.828C258.867 4.166 259.153 4.452 259.517 4.452ZM252.289 20.416L250.235 18.414C252.731 15.684 254.681 12.72 256.033 9.834L246.829 9.86L246.777 6.766L260.479 6.74V10.302C258.737 13.916 255.981 17.296 252.289 20.416ZM283.059 18.986L277.313 20.26C276.481 16.984 275.727 11.472 275.415 6.74L279.081 6.376C279.315 11.186 279.575 14.306 279.861 16.542L282.435 15.944L283.059 18.986ZM271.463 20.364L268.161 19.766C269.123 15.528 269.721 11.056 270.007 6.402L273.829 6.688C273.569 11.42 272.581 16.802 271.463 20.364ZM296.955 7.286H303.221C302.883 13.058 302.519 16.75 301.843 20.338L296.955 19.688L297.423 16.724L299.191 16.958C299.399 14.878 299.477 12.72 299.503 10.38H296.487C295.837 14.15 295.083 17.114 294.199 20.286L291.001 19.948C291.703 16.386 292.197 13.682 292.639 10.406H289.623L289.571 7.312H293.029C293.081 6.766 293.159 6.22 293.211 5.622L297.163 5.83C297.111 6.324 297.033 6.818 296.955 7.286ZM320.215 14.904H309.451V11.68H320.215V14.904ZM339.474 11.108C338.252 11.108 337.316 10.172 337.316 8.95C337.316 7.754 338.252 6.818 339.474 6.818C340.67 6.818 341.606 7.754 341.606 8.95C341.606 10.172 340.67 11.108 339.474 11.108ZM342.724 15.294L339.916 18.544C337.186 16.724 334.976 14.904 332.74 12.642L329.048 16.984L326.448 14.722L332.324 8.326C335.678 11.004 339.162 13.318 342.724 15.294ZM339.474 9.6C339.786 9.6 340.072 9.314 340.072 8.976C340.072 8.664 339.786 8.378 339.474 8.378C339.11 8.378 338.824 8.664 338.824 8.976C338.824 9.314 339.11 9.6 339.474 9.6ZM355.885 14.254L353.181 14.384L352.791 8.378L355.599 8.274L355.885 14.254ZM352.427 14.488L349.749 14.644L349.229 8.534L352.063 8.43L352.427 14.488ZM357.679 20.338L355.183 19.714C356.275 16.152 356.925 13.292 357.523 9.106L360.773 9.678C359.915 13.838 359.005 17.166 357.679 20.338ZM370.589 5.804V11.342C372.747 11.628 374.775 11.836 376.647 11.966L376.491 15.008C375.945 15.034 375.399 15.034 374.853 15.034C373.423 15.034 372.019 14.982 370.589 14.852V20.13H367.261V5.804H370.589Z" fill="#DD8F69"/>
</svg>
