<svg width="355" height="205" viewBox="0 0 355 205" fill="none" xmlns="http://www.w3.org/2000/svg">
<path d="M116.4 196H90.2L83.6 173.2L45.6 173.4L38.8 196H14L46 87.8L84.8 86.4L116.4 196ZM65 110L52.4 151.6L77.2 151.4L65 110Z" fill="#DD8F69"/>
<g opacity="0.2">
<rect x="111.2" y="109.72" width="215.18" height="74.7867" rx="37.3934" fill="#DD8F69"/>
<ellipse cx="157.31" cy="113.98" rx="37.63" ry="26.98" fill="#DD8F69"/>
<ellipse cx="177.98" cy="178.353" rx="24.38" ry="17.5133" fill="#DD8F69"/>
<ellipse cx="120.21" cy="155.634" rx="30.21" ry="21.3" fill="#DD8F69"/>
<ellipse cx="324.79" cy="150.9" rx="30.21" ry="21.3" fill="#DD8F69"/>
<ellipse cx="231.51" cy="121.553" rx="38.69" ry="34.5534" fill="#DD8F69"/>
<ellipse cx="301.47" cy="175.987" rx="31.27" ry="24.6134" fill="#DD8F69"/>
<ellipse cx="236.28" cy="179.773" rx="33.92" ry="20.8267" fill="#DD8F69"/>
<ellipse cx="293.52" cy="117.767" rx="26.5" ry="23.1934" fill="#DD8F69"/>
<ellipse cx="122.86" cy="124.393" rx="22.26" ry="16.5667" fill="#DD8F69"/>
<ellipse cx="134.52" cy="184.033" rx="22.26" ry="16.5667" fill="#DD8F69"/>
<ellipse cx="323.73" cy="126.76" rx="23.85" ry="18.9333" fill="#DD8F69"/>
</g>
<path d="M164.28 151.73L158.565 151.055C158.925 148.85 159.015 145.97 158.97 143.405L142.59 143.45L142.5 138.095L166.125 138.05C166.08 141.74 165.09 148.445 164.28 151.73ZM153.525 161.63L147.765 160.55C148.71 155.555 149.115 150.65 149.385 145.385L155.955 145.79C155.505 150.965 154.65 156.545 153.525 161.63ZM199.227 151.055L194.547 151.28L193.872 140.885L198.732 140.705L199.227 151.055ZM193.242 151.46L188.607 151.73L187.707 141.155L192.612 140.975L193.242 151.46ZM202.332 161.585L198.012 160.505C199.902 154.34 201.027 149.39 202.062 142.145L207.687 143.135C206.202 150.335 204.627 156.095 202.332 161.585ZM251.317 136.7C249.202 136.7 247.582 135.08 247.582 132.965C247.582 130.895 249.202 129.275 251.317 129.275C253.387 129.275 255.007 130.895 255.007 132.965C255.007 135.08 253.387 136.7 251.317 136.7ZM251.317 134.09C251.857 134.09 252.352 133.595 252.352 133.01C252.352 132.47 251.857 131.975 251.317 131.975C250.687 131.975 250.192 132.47 250.192 133.01C250.192 133.595 250.687 134.09 251.317 134.09ZM238.807 161.72L235.252 158.255C239.572 153.53 242.947 148.4 245.287 143.405L229.357 143.45L229.267 138.095L252.982 138.05V144.215C249.967 150.47 245.197 156.32 238.807 161.72ZM302.413 159.245L292.468 161.45C291.028 155.78 289.723 146.24 289.183 138.05L295.528 137.42C295.933 145.745 296.383 151.145 296.878 155.015L301.333 153.98L302.413 159.245ZM282.343 161.63L276.628 160.595C278.293 153.26 279.328 145.52 279.823 137.465L286.438 137.96C285.988 146.15 284.278 155.465 282.343 161.63Z" fill="#DD8F69"/>
<path opacity="0.5" d="M133.8 180.5C140.6 180.5 143.6 184.5 143.6 189.8C143.6 194.75 140.65 198.4 134.1 198.4C132.1 198.4 130.5 198.05 129.2 197.35V205H122.55L122 181L129.2 180.95V181.6C130.45 180.9 131.95 180.5 133.8 180.5ZM133.2 193.2C135.35 193.2 137.5 192.05 137.5 189.9C137.5 187.2 135.35 185.9 133.2 185.9C131.05 185.9 128.9 187.2 128.9 189.75C128.9 192.05 131.05 193.2 133.2 193.2ZM164.904 180.5C171.704 180.5 174.704 184.5 174.704 189.8C174.704 194.75 171.754 198.4 165.204 198.4C163.204 198.4 161.604 198.05 160.304 197.35V205H153.654L153.104 181L160.304 180.95V181.6C161.554 180.9 163.054 180.5 164.904 180.5ZM164.304 193.2C166.454 193.2 168.604 192.05 168.604 189.9C168.604 187.2 166.454 185.9 164.304 185.9C162.154 185.9 160.004 187.2 160.004 189.75C160.004 192.05 162.154 193.2 164.304 193.2ZM196.507 192.85L197.957 198.65C196.007 199.2 194.257 199.45 192.707 199.45C187.857 199.45 185.107 196.75 184.807 190.85L184.207 171.95L191.407 171.9V189.75C191.407 192.05 192.157 193.25 194.107 193.25C194.757 193.25 195.557 193.15 196.507 192.85ZM215.427 199.4C210.627 199.4 205.777 196.2 205.777 190.3C205.777 184.45 209.977 180.55 215.727 180.55C221.477 180.55 225.177 185.7 225.177 190.8C225.177 191.25 225.127 191.65 225.077 192.1H211.727C212.377 194 213.977 194.8 215.627 194.8C216.927 194.8 218.227 194.25 218.977 193.35L223.377 195.9C221.427 198.5 218.977 199.4 215.427 199.4ZM211.627 187.9H219.627C219.427 186.15 217.577 185.25 215.727 185.25C213.877 185.25 212.027 186.1 211.627 187.9Z" fill="#DD8F69"/>
</svg>
