<svg width="200" height="22" viewBox="0 0 200 22" fill="none" xmlns="http://www.w3.org/2000/svg">
<path d="M14.458 0.239999L17.786 0.656L17.266 2.892L14.25 2.554L14.458 0.239999ZM11.338 0.292L11.676 2.554L8.582 2.892L8.036 0.681999L11.338 0.292ZM0.392 2.086L5.644 2.554L5.384 5.466L0.132 4.998L0.392 2.086ZM8.972 7.572H11.286L11.78 6.48H7.594V3.178H18.384V6.48H14.796L14.016 7.572H16.876V16.386H8.972V7.572ZM18.462 17.556L17.708 20.832C12.612 20.286 8.582 19.662 3.746 18.596C3.59 19.012 3.46 19.376 3.33 19.688L0.132 19.09C0.86 16.802 1.874 11.836 2.264 9.496H0.0800001V6.324L5.852 6.35L5.774 10.536C5.748 12.226 5.254 14.202 4.682 15.97C9.388 16.828 13.47 17.14 18.462 17.556ZM11.65 10.146H14.458V9.6H11.65V10.146ZM11.65 12.2H14.458V11.654H11.65V12.2ZM11.65 14.358H14.458V13.812H11.65V14.358ZM45.2729 12.538H32.4289V0.265998H45.2729V12.538ZM36.3809 3.074V3.75H41.3729V3.074H36.3809ZM36.3809 6.038V6.714H41.3729V6.038H36.3809ZM36.3809 9.08V9.756H41.3729V9.08H36.3809ZM48.1069 16.698H29.9069V13.474H48.1069V16.698ZM45.9749 20.234L41.8149 21.456C41.4249 20.416 41.0349 19.22 40.7229 17.92L44.3369 17.192C44.8829 18.284 45.3769 19.35 45.9749 20.234ZM36.4329 21.456L32.4289 20.78C32.7149 19.74 33.0269 18.518 33.2349 17.374L37.5509 18.024C37.2649 19.168 36.9009 20.468 36.4329 21.456ZM69.098 19.974H64.444V8.404L60.856 9.366L59.686 5.076L69.098 2.554V19.974ZM92.8068 11.394C94.1848 12.304 95.0428 13.63 95.0428 15.294C95.0428 18.44 92.0268 20.442 88.3348 20.442C84.5908 20.442 81.5748 18.44 81.5748 15.294C81.5748 13.63 82.4328 12.304 83.8108 11.394C82.7708 10.484 82.1468 9.21 82.1468 7.728C82.1468 4.608 84.9028 2.684 88.3348 2.684C91.7148 2.684 94.4708 4.608 94.4708 7.728C94.4708 9.21 93.8468 10.484 92.8068 11.394ZM88.3608 6.246C87.0348 6.246 85.9688 7.078 85.9688 8.196C85.9688 9.158 87.0348 10.094 88.3608 10.094C89.6868 10.094 90.7528 9.158 90.7528 8.196C90.7528 7.078 89.6868 6.246 88.3608 6.246ZM88.3608 16.932C89.8688 16.932 91.0908 15.944 91.0908 14.878C91.0908 13.838 89.8688 12.98 88.3608 12.98C86.8528 12.98 85.6308 13.838 85.6308 14.878C85.6308 15.944 86.8528 16.932 88.3608 16.932ZM127.355 5.934V9.236H123.949V12.772H127.173V16.126H123.949V20.624H120.283V16.126H117.319V12.772H120.283V9.236H118.697C118.619 9.678 118.515 10.12 118.411 10.536L115.473 10.25C115.811 8.04 116.019 5.7 116.149 3.23L119.425 3.386C119.373 4.27 119.321 5.102 119.217 5.934H120.283V0.629998H123.949V5.934H127.355ZM112.145 2.762L115.473 5.05C114.797 6.22 113.939 7.572 113.003 8.924L114.537 8.872V19.272L111.027 19.324L110.871 12.044L110.065 13.162L106.997 11.03C108.193 9.392 111.027 4.946 112.145 2.762ZM148.294 13.24L152.818 13.032L152.974 16.126L148.372 16.334L148.45 20.104L145.122 20.286L144.914 16.49L140.546 16.698L140.39 13.604L144.732 13.396L144.576 10.666L139.48 10.874L139.324 7.78L144.394 7.572L144.29 5.83L148.138 5.648L148.164 7.416L153.156 7.208L153.312 10.302L148.242 10.51L148.294 13.24ZM172.456 14.254L169.752 14.384L169.362 8.378L172.17 8.274L172.456 14.254ZM168.998 14.488L166.32 14.644L165.8 8.534L168.634 8.43L168.998 14.488ZM174.25 20.338L171.754 19.714C172.846 16.152 173.496 13.292 174.094 9.106L177.344 9.678C176.486 13.838 175.576 17.166 174.25 20.338ZM193.14 5.804V11.342C195.298 11.628 197.326 11.836 199.198 11.966L199.042 15.008C198.496 15.034 197.95 15.034 197.404 15.034C195.974 15.034 194.57 14.982 193.14 14.852V20.13H189.812V5.804H193.14Z" fill="#DEB283"/>
</svg>
