<svg width="153" height="75" viewBox="0 0 153 75" fill="none" xmlns="http://www.w3.org/2000/svg">
<path d="M14.742 39.318L10.836 36.546C10.206 39.36 8.274 40.2 3.822 40.2C3.36 40.2 3.234 40.116 3.066 39.696L0.798 34.446C2.688 34.446 3.696 34.362 4.368 34.278C5.208 34.194 5.46 33.942 5.46 32.934V25.332C4.494 25.668 3.528 25.962 2.604 26.214L2.226 26.004L0.63 21.09L0.84 20.712C2.394 20.376 3.948 19.998 5.46 19.62V13.11L1.26 13.236L0.966 12.984V8.406L1.218 8.154L5.46 8.28V0.467999L5.754 0.131999H10.542L10.878 0.425997V8.238L14.448 8.154L14.7 8.364V13.026L14.448 13.236L10.878 13.152V18.066C12.222 17.646 13.524 17.226 14.658 16.806L14.742 21.006C14.742 21.762 14.574 22.056 13.902 22.308C13.062 22.644 12.012 23.022 10.878 23.442V24.702L11.088 33.858C11.088 34.74 11.046 35.538 10.92 36.21C14.742 31.422 15.918 25.878 15.918 16.134V9.624L15.792 3.618L16.086 3.324L20.37 4.122C25.83 3.492 30.744 2.274 35.532 0.803998H35.952C37.38 1.938 38.808 3.282 40.236 4.962L40.194 5.382C39.018 5.676 37.884 5.97 36.75 6.222C36.918 18.822 37.716 27.012 41.748 35.454L37.674 39.192C37.38 39.444 37.128 39.57 36.918 39.57C36.666 39.57 36.498 39.402 36.372 39.15C32.592 31.128 31.626 21.3 31.458 7.398C30.702 7.524 29.988 7.65 29.232 7.818V24.786L29.442 38.31H23.688L23.898 24.786V8.616C23.058 8.7 22.176 8.826 21.294 8.91V15.756C21.294 26.802 20.202 33.27 16.002 39.15C15.792 39.444 15.666 39.612 15.414 39.612C15.246 39.612 15.036 39.528 14.742 39.318ZM48.884 1.524H83.152L82.476 36.78L74.312 36.104L74.728 30.384L76.34 30.54L76.444 8.492H56.528C56.58 10.208 56.58 11.872 56.58 13.588C56.58 21.336 56.112 29.032 55.228 36.832L48.26 36.364C48.78 27.992 48.936 19.62 48.936 10.884C48.936 7.816 48.936 4.696 48.884 1.524ZM59.284 21.96V17.228H63.6V15.72H60.012V10.988H63.6V9.48H68.124V10.988H71.868V15.72H68.124V17.228H72.596V21.96H59.284ZM73.012 33.4H59.232V23.52H73.012V33.4ZM68.28 27.784H64.224V29.5H68.28V27.784ZM102.343 34.388L101.407 29.5C107.699 28.824 110.819 26.536 110.819 24.664C110.819 23.156 108.791 21.856 104.683 21.856C102.395 21.856 99.3788 22.272 95.7388 23.26L94.5948 17.748C98.6508 16.656 102.187 16.136 105.099 16.136C113.211 16.136 116.903 19.828 116.903 23.936C116.903 28.72 111.703 34.076 102.343 34.388ZM148.641 31.892L143.077 36.156C139.489 33.764 136.889 30.384 136.889 26.484C136.889 23.468 138.501 20.14 142.557 16.864L128.933 16.968V10.884L152.645 10.936V18.476C146.509 20.972 144.169 23.676 144.169 26.12C144.169 28.252 145.989 30.28 148.641 31.892ZM18.012 55.456L17.936 59.788L11.286 59.826L9.424 71.454L5.016 70.922L6.574 59.864H3.8V55.418H7.182L7.562 52.834L12.35 53.328L12.008 55.456H18.012ZM23.56 55.912L25.156 61.84L21.242 63.094L19.532 57.052L23.56 55.912ZM15.352 61.194L19.532 60.928L19.76 66.172C20.938 66.286 22.04 66.476 23.332 66.78L22.648 70.2C21.546 69.934 20.748 69.782 19.874 69.706C19.684 71.948 18.506 74.38 15.238 74.38C12.312 74.38 10.678 72.138 10.678 69.934C10.678 67.768 12.236 65.64 15.694 65.64L15.352 61.194ZM15.276 70.846C15.732 70.846 16.15 70.428 16.15 69.972C16.15 69.516 15.732 69.098 15.276 69.098C14.82 69.098 14.402 69.516 14.402 69.972C14.402 70.428 14.82 70.846 15.276 70.846ZM50.2431 67.274L52.5231 71.226C50.3191 72.784 48.3431 73.506 46.6711 73.506C43.9351 73.506 41.9591 71.606 40.9331 68.566L38.5011 69.82L37.4751 74.228L32.7631 73.506L37.1711 53.214L42.2631 53.974L39.8311 64.196L43.8591 62.144C45.0371 66.704 45.8731 68.49 47.3931 68.49C48.1531 68.49 49.0651 68.034 50.2431 67.274ZM81.1535 48.426L81.4955 53.442L78.6455 53.746L78.1135 48.692L81.1535 48.426ZM77.1635 48.844L77.6955 53.822L74.7695 54.24L73.8955 49.3L77.1635 48.844ZM77.8475 55.684L77.7715 60.016L68.3475 60.054L66.4855 71.53L62.0015 70.694L63.4835 60.092H60.5195V55.646H64.1295L64.5095 52.834L69.4115 53.328L69.0315 55.646L77.8475 55.684ZM76.1375 66.286L69.8675 66.324L69.7915 62.486L80.4695 62.41L79.8235 68.11H75.8715L76.1375 66.286ZM74.1995 70.048C75.9855 70.048 77.8475 69.896 79.0635 69.554L80.1655 73.278C78.4935 74 76.4035 74.342 74.3895 74.342C72.4895 74.342 70.6275 74.038 69.2975 73.43L69.9055 69.63C70.9315 69.934 72.5275 70.048 74.1995 70.048ZM96.3184 74.38C94.6464 74.38 93.0884 74 91.7964 73.392L92.9364 69.744C94.1144 70.124 94.9504 70.314 96.3564 70.428C96.7364 70.466 97.1164 70.466 97.4584 70.466C100.574 70.466 101.98 69.288 101.98 68.148C101.98 67.008 100.612 65.906 98.1804 65.906C96.2804 65.906 93.7344 66.59 90.6184 68.414L88.4524 64.538L98.1424 58.8L89.6684 58.876L89.5924 54.81L105.21 54.734L105.096 59.56L99.7004 62.258C99.9284 62.258 100.194 62.22 100.422 62.22C104.45 62.22 106.958 65.032 106.958 67.996C106.958 71.264 103.842 74.646 96.3184 74.38ZM128.031 54.354L127.157 58.42L117.163 57.128L117.733 52.834L128.031 54.354ZM123.813 74.342L119.861 71.872C122.293 69.25 123.699 67.046 123.699 65.564C123.699 64.272 122.597 63.512 120.165 63.512C119.063 63.512 117.657 63.664 115.947 64.006L115.263 59.75C117.277 59.37 119.063 59.18 120.621 59.18C126.473 59.18 129.095 61.65 129.095 64.994C129.095 67.806 127.195 71.264 123.813 74.342ZM147.096 68.224H142.612C142.612 65.944 143.182 64.614 145.044 62.714C146.26 61.498 147.02 60.092 147.02 58.99C147.02 57.888 146.298 57.128 144.474 57.128C142.612 57.128 142.004 58.078 142.004 59.18C142.004 59.978 142.308 60.852 142.726 61.498L139.154 62.904C138.356 62.03 137.824 60.51 137.824 58.952C137.824 56.14 139.61 53.1 144.854 53.1C149.68 53.1 151.694 55.456 151.694 58.268C151.694 60.168 150.744 62.258 149.11 63.93C147.438 65.64 147.096 66.552 147.096 68.224ZM147.096 74H142.498V69.782H147.096V74Z" fill="#62300C"/>
</svg>
