<svg width="531" height="31" viewBox="0 0 531 31" fill="none" xmlns="http://www.w3.org/2000/svg">
<path d="M21.4568 7.49V11.795H13.6518V16.1H20.7218L20.3718 28H1.57675L1.22675 16.1H8.15675V11.795H0.00175191V7.49H8.15675V4.235H13.6518V7.49H21.4568ZM6.68675 23.38H14.8068V21.07H6.68675V23.38ZM55.0021 2.45L56.0521 7.735L52.5521 8.47L51.2921 3.01L55.0021 2.45ZM45.4121 3.255L50.0671 2.73L50.6621 9.065H55.8421V13.615H51.1871C51.6771 17.605 52.1321 20.685 52.6221 22.54L54.7221 22.155L55.6321 26.6L49.6821 28.385C48.4221 23.555 47.4071 18.62 46.6721 13.615H41.3871V9.065H46.0421C45.7971 7.14 45.5871 5.215 45.4121 3.255ZM35.7521 4.795L40.2321 7.875C39.3221 9.45 38.1671 11.27 36.9071 13.09L38.9721 13.02V27.02L34.2471 27.09L34.0371 17.29L32.9521 18.795L28.8221 15.925C30.4321 13.72 34.2471 7.735 35.7521 4.795ZM91.1037 24.955L88.0587 28.315C87.3237 27.72 86.5537 27.09 85.7837 26.39C85.3987 27.195 84.9787 28.035 84.5237 28.84L80.1487 27.72C80.8487 25.97 81.4787 24.255 82.0387 22.505C81.3037 21.63 80.6037 20.755 80.0087 19.88L81.6187 17.5L83.1237 18.865C83.4737 17.57 83.7887 16.31 84.0687 15.05H79.6587C79.3787 19.495 78.9937 23.59 78.5737 28.105L74.7937 27.93C75.1087 21.84 75.2837 15.995 75.2837 9.065C75.2837 7 75.2837 4.865 75.2487 2.59H90.1937V7.21H80.0787C80.0437 8.435 79.9737 9.59 79.9037 10.745H89.6687V15.68C89.0037 18.06 88.3037 20.265 87.4987 22.4C88.5487 23.205 89.7037 24.01 91.1037 24.955ZM69.2987 3.5H72.7637V9.065H74.1637V12.53H67.7937C67.7937 13.23 67.7587 13.93 67.7237 14.63H73.0437V26.915H69.4037V18.06H67.5837C67.4437 20.86 67.2687 23.695 67.0587 26.67L63.4187 26.39C63.5937 21.525 63.6637 17.08 63.6637 12.6C63.6637 9.695 63.6287 6.755 63.5587 3.71L67.9337 3.955C67.9337 5.705 67.9337 7.385 67.8987 9.065H69.2987V3.5ZM125.025 2.45V5.635H122.085L121.525 8.925H124.885L124.185 23.765L117.955 23.17L118.375 20.72L120.02 20.93L120.23 12.39H112.495C112.39 16.205 112.32 19.04 111.795 22.89L108.155 22.645C108.19 20.405 108.225 18.095 108.225 15.75C108.225 13.44 108.19 11.13 108.12 8.995H110.885L110.43 5.635H107.525V2.45H114.315V0.594998H118.34V2.45H125.025ZM98.8798 3.885L105.95 4.515L105.6 8.435L98.5298 7.805L98.8798 3.885ZM114.77 8.96H117.605L117.85 5.635H114.665L114.77 8.96ZM106.23 9.625L106.125 15.26C106.09 17.535 105.425 20.195 104.655 22.575C110.99 23.73 116.485 24.15 123.205 24.71L122.19 29.12C115.33 28.385 109.905 27.545 103.395 26.11C103.185 26.67 103.01 27.16 102.835 27.58L98.5298 26.775C99.5098 23.695 100.875 17.01 101.4 13.86H98.4598V9.59L106.23 9.625ZM114.98 13.685V12.915H117.29V13.685H119.285V15.365H117.29V16.205H119.25V20.44H113.3V16.205H114.98V15.365H113.265V13.685H114.98ZM115.4 18.69H116.905V17.78H115.4V18.69ZM156.803 19.95V23.905H159.778V28.315H148.123V23.905H151.938V19.95H148.508V16.065H151.938V11.34H149.488C149.278 12.39 148.998 13.37 148.718 14.245L144.973 13.755C145.533 10.92 146.023 7.105 146.163 4.2L150.538 4.76L150.328 6.79H151.938V2.555H156.803V6.79H159.638V11.34H156.803V16.065H159.533V19.95H156.803ZM133.458 11.725L136.048 12.11L136.083 4.795H140.668L140.598 28H136.013L136.048 16.485C135.768 17.675 135.418 18.83 134.998 19.95L132.373 19.565C132.828 17.01 133.248 14.42 133.458 11.725ZM141.193 12.705L144.133 12.46C144.518 14.665 144.728 16.8 144.868 18.935L141.578 19.285C141.508 17.115 141.438 14.945 141.193 12.705ZM185.27 10.08L185.34 14.245L168.855 14.28L168.785 10.115L185.27 10.08ZM186.215 16.345L186.285 20.51H180.02C179.425 23.695 178.655 26.145 177.745 28.525L173.23 27.755C173.825 25.305 174.21 22.96 174.455 20.545H167.91L167.84 16.38L186.215 16.345ZM213.955 24.92L210.385 28.35C208.32 26.95 206.57 25.41 204.47 23.415C202.265 25.34 199.955 27.16 197.785 28.525L195.02 25.48C199.64 21.7 203.315 17.99 205.975 14.315L195.65 14.35L195.58 10.185L212.03 10.15V14.945C210.91 16.695 209.335 18.62 207.515 20.475C209.23 21.91 211.085 23.205 213.955 24.92ZM227.192 8.89V16.345C230.097 16.73 232.827 17.01 235.347 17.185L235.137 21.28C234.402 21.315 233.667 21.315 232.932 21.315C231.007 21.315 229.117 21.245 227.192 21.07V28.175H222.712V8.89H227.192ZM252.622 22.68H248.492C248.492 20.58 249.017 19.355 250.732 17.605C251.852 16.485 252.552 15.19 252.552 14.175C252.552 13.16 251.887 12.46 250.207 12.46C248.492 12.46 247.932 13.335 247.932 14.35C247.932 15.085 248.212 15.89 248.597 16.485L245.307 17.78C244.572 16.975 244.082 15.575 244.082 14.14C244.082 11.55 245.727 8.75 250.557 8.75C255.002 8.75 256.857 10.92 256.857 13.51C256.857 15.26 255.982 17.185 254.477 18.725C252.937 20.3 252.622 21.14 252.622 22.68ZM252.622 28H248.387V24.115H252.622V28ZM296.842 24.85L293.867 26.67C293.447 25.76 292.992 24.85 292.502 23.94V28.84H288.827V25.025C288.162 26.215 287.462 27.335 286.727 28.455L284.172 27.09C285.187 25.34 286.062 23.52 286.797 21.63H284.662L284.627 17.465H288.827V15.54H284.627V11.235H286.097L285.817 7.49H284.452V3.5H288.407V1.365H292.047V3.5H296.177V7.49H294.532L294.252 11.235H296.212V15.54H292.502V17.465H296.492L296.527 21.63H295.022C295.722 22.715 296.352 23.8 296.842 24.85ZM309.267 23.835L309.407 21.7L312.592 21.84L312.242 28.035L309.547 28.385C309.127 28.42 308.742 28.455 308.392 28.455C305.277 28.455 303.772 26.81 303.772 22.96V18.76H297.542L297.192 2.45H311.577L311.297 18.76H307.902L307.832 23.835H309.267ZM306.887 6.475H301.392V7.525H306.887V6.475ZM291.172 7.49H289.527L289.632 11.235H291.032L291.172 7.49ZM306.887 9.975H301.392V11.06H306.887V9.975ZM306.887 13.51H301.392V14.56H306.887V13.51ZM299.887 28.735L296.807 27.615C297.997 23.975 298.277 22.925 298.872 19.46L303.107 20.51C302.197 23.87 301.357 26.005 299.887 28.735ZM341.42 15.54L336.45 16.24C335.61 13.23 334.945 10.185 334.525 7.175L339.775 6.44C340.055 9.52 340.65 12.53 341.42 15.54ZM343.275 19.67L342.96 27.055C342.12 27.16 341.245 27.195 340.405 27.195C333.79 27.195 327.245 23.87 327.245 10.01L332.88 9.765C333.16 17.395 335.155 21.035 338.235 21.21V19.25L343.275 19.67ZM347.965 18.935L343.31 18.585C343.45 17.22 343.485 15.89 343.485 14.525C343.485 13.195 343.45 11.83 343.31 10.5H348.385C348.455 11.375 348.49 12.25 348.49 13.09C348.49 15.085 348.315 17.045 347.965 18.935ZM324.515 24.08L319.93 23.38C320.56 20.3 321.015 17.22 321.26 14.07L325.95 14.42C325.81 17.675 325.39 21.175 324.515 24.08ZM372.696 11.095L372.556 15.085L363.386 15.12L363.106 16.45C364.856 16.31 366.116 16.8 366.956 17.71C368.216 17.395 369.651 17.15 371.261 16.975L371.436 20.895C370.246 21 369.196 21.105 368.286 21.28V21.84C368.286 22.4 368.251 22.995 368.146 23.59L364.436 23.485C364.541 23.065 364.611 22.68 364.611 22.295V22.225C363.421 22.75 362.896 23.275 362.896 23.73C362.896 24.185 363.456 24.5 364.331 24.605C364.716 24.64 365.101 24.675 365.486 24.675C367.131 24.675 368.846 24.36 370.526 24.01L371.016 27.615C368.951 28.105 367.691 28.35 365.731 28.35C365.381 28.35 364.996 28.315 364.611 28.315C361.146 28.175 358.626 26.145 358.626 23.835C358.626 22.505 359.431 21.07 361.391 19.845C361.076 19.81 360.726 19.81 360.376 19.81C359.816 19.81 359.186 19.845 358.486 19.915L359.466 15.12H356.526V11.025H360.306L360.796 8.575L364.681 9.065L364.261 11.06L372.696 11.095ZM406.51 26.705L402.03 28.49C400.63 25.865 399.685 23.45 399.02 20.615C398.355 23.17 397.27 25.865 395.975 28.525L391.915 27.405C393.14 24.465 394.085 22.47 394.925 19.39H391.04V15.33H392.335V5.565H396.43V2.52H400.98V5.565H405.32V15.33H406.405V19.39H403.045C403.955 21.98 405.18 24.22 406.51 26.705ZM389.64 24.115H380.75V6.335H389.64V24.115ZM397.13 9.94H396.185V14.525H397.13V9.94ZM400.315 14.525H401.26V9.94H400.315V14.525ZM386.35 11.095H383.935V14.07H386.35V11.095ZM386.35 17.29H383.935V20.125H386.35V17.29ZM432.602 11.34L432.672 15.155H426.827V16.415C426.827 21.07 426.372 24.92 425.672 28.385L421.262 27.755C421.682 26.25 421.787 25.34 421.962 24.255C421.507 24.36 421.052 24.395 420.632 24.395C418.007 24.395 416.817 22.645 416.817 20.825C416.817 18.865 418.217 16.765 420.842 16.765C421.122 16.765 421.402 16.8 421.682 16.835C421.717 16.275 421.717 15.715 421.752 15.19H414.647L414.577 11.375H421.612C421.542 10.535 421.472 9.73 421.332 8.89L426.407 8.4C426.512 9.415 426.617 10.395 426.652 11.34H432.602ZM421.157 21.56C421.612 21.56 421.997 21.175 421.997 20.685C421.997 20.23 421.612 19.845 421.157 19.845C420.667 19.845 420.282 20.23 420.282 20.685C420.282 21.175 420.667 21.56 421.157 21.56ZM446.245 8.4L446.28 16.31L441.415 16.275L441.45 3.745L452.44 3.675V8.435L446.245 8.4ZM466.113 30.291L463.416 28.377C462.981 30.32 461.647 30.9 458.573 30.9C458.254 30.9 458.167 30.842 458.051 30.552L456.485 26.927C457.79 26.927 458.486 26.869 458.95 26.811C459.53 26.753 459.704 26.579 459.704 25.883V20.634C459.037 20.866 458.37 21.069 457.732 21.243L457.471 21.098L456.369 17.705L456.514 17.444C457.587 17.212 458.66 16.951 459.704 16.69V12.195L456.804 12.282L456.601 12.108V8.947L456.775 8.773L459.704 8.86V3.466L459.907 3.234H463.213L463.445 3.437V8.831L465.91 8.773L466.084 8.918V12.137L465.91 12.282L463.445 12.224V15.617C464.373 15.327 465.272 15.037 466.055 14.747L466.113 17.647C466.113 18.169 465.997 18.372 465.533 18.546C464.953 18.778 464.228 19.039 463.445 19.329V20.199L463.59 26.521C463.59 27.13 463.561 27.681 463.474 28.145C466.113 24.839 466.925 21.011 466.925 14.283V9.788L466.838 5.641L467.041 5.438L469.999 5.989C473.769 5.554 477.162 4.713 480.468 3.698H480.758C481.744 4.481 482.73 5.409 483.716 6.569L483.687 6.859C482.875 7.062 482.092 7.265 481.309 7.439C481.425 16.139 481.976 21.794 484.76 27.623L481.947 30.204C481.744 30.378 481.57 30.465 481.425 30.465C481.251 30.465 481.135 30.349 481.048 30.175C478.438 24.636 477.771 17.85 477.655 8.251C477.133 8.338 476.64 8.425 476.118 8.541V20.257L476.263 29.595H472.29L472.435 20.257V9.092C471.855 9.15 471.246 9.237 470.637 9.295V14.022C470.637 21.649 469.883 26.115 466.983 30.175C466.838 30.378 466.751 30.494 466.577 30.494C466.461 30.494 466.316 30.436 466.113 30.291ZM489.604 4.795H512.669L512.214 28.525L506.719 28.07L506.999 24.22L508.084 24.325L508.154 9.485H494.749C494.784 10.64 494.784 11.76 494.784 12.915C494.784 18.13 494.469 23.31 493.874 28.56L489.184 28.245C489.534 22.61 489.639 16.975 489.639 11.095C489.639 9.03 489.639 6.93 489.604 4.795ZM496.604 18.55V15.365H499.509V14.35H497.094V11.165H499.509V10.15H502.554V11.165H505.074V14.35H502.554V15.365H505.564V18.55H496.604ZM505.844 26.25H496.569V19.6H505.844V26.25ZM502.659 22.47H499.929V23.625H502.659V22.47ZM530.311 28.63H519.321L519.286 23.87L525.481 23.975L525.446 16.065L530.311 16.1V28.63Z" fill="#62300C"/>
</svg>
