<svg width="315" height="200" viewBox="0 0 315 200" fill="none" xmlns="http://www.w3.org/2000/svg">
<path d="M24.8 195.4L20 88.6C31.2 87.8 40.8 87.4 49.2 87.4C90 87.4 100.4 97.6 100.4 118.8C100.4 128 97.6 136.2 83.6 140.6C97.8 144.2 103 152 103 163C103 185.8 87.6 196 43.8 196C38 196 31.6 195.8 24.8 195.4ZM46.2 110.2L47.2 128.2C50 128.4 52.4 128.6 54.6 128.6C69.8 128.6 75.2 124 75.2 118C75.2 112.6 69 109.6 56.6 109.6C53.6 109.6 50 109.8 46.2 110.2ZM48.2 152.2L49.2 174.8C52 175 54.6 175.2 57 175.2C71.6 175.2 77.2 171 77.2 164C77.2 156 70.6 151.6 57.4 151.6C54.6 151.6 51.6 151.8 48.2 152.2Z" fill="#DEB283"/>
<g opacity="0.2">
<rect x="105.126" y="101.72" width="200" height="74.7867" rx="37.3934" fill="#DEB283"/>
<ellipse cx="146.726" cy="105.98" rx="33.9494" ry="26.98" fill="#DEB283"/>
<ellipse cx="165.375" cy="170.353" rx="21.9954" ry="17.5133" fill="#DEB283"/>
<ellipse cx="113.255" cy="147.634" rx="27.2552" ry="21.3" fill="#DEB283"/>
<ellipse cx="287.745" cy="130.9" rx="27.2552" ry="21.3" fill="#DEB283"/>
<ellipse cx="213.669" cy="113.553" rx="34.9057" ry="34.5534" fill="#DEB283"/>
<ellipse cx="273.733" cy="162.987" rx="28.2115" ry="24.6134" fill="#DEB283"/>
<ellipse cx="217.972" cy="171.773" rx="30.6023" ry="20.8267" fill="#DEB283"/>
<ellipse cx="269.587" cy="106.767" rx="23.908" ry="23.1934" fill="#DEB283"/>
<ellipse cx="115.646" cy="116.393" rx="20.0828" ry="16.5667" fill="#DEB283"/>
<ellipse cx="126.166" cy="176.033" rx="20.0828" ry="16.5667" fill="#DEB283"/>
</g>
<path d="M150.79 124.07L147.415 124.43L146.785 118.445L150.385 118.13L150.79 124.07ZM146.29 124.52L142.825 125.015L141.79 119.165L145.66 118.625L146.29 124.52ZM135.04 149.72L131.485 146.255C135.805 141.53 139.18 136.4 141.52 131.405L125.59 131.45L125.5 126.095L149.215 126.05V132.215C146.2 138.47 141.43 144.32 135.04 149.72ZM172.377 149.54V124.43H178.137V142.16C181.602 141.305 183.582 140.675 187.812 138.83L190.242 143.645C184.437 146.885 178.992 148.73 172.377 149.54ZM222.313 131.63L211.873 131.675L211.828 126.32L222.268 126.275L222.313 131.63ZM220.378 149.945L216.598 145.04C223.168 140.675 227.353 137.03 232.573 130.145L237.028 133.43C232.033 140.54 227.308 145.085 220.378 149.945ZM221.413 138.695L211.873 138.74L211.828 133.385L221.368 133.34L221.413 138.695ZM275.762 123.575L276.167 129.515L272.792 129.875L272.162 123.89L275.762 123.575ZM271.037 124.07L271.667 129.965L268.202 130.46L267.167 124.61L271.037 124.07ZM258.617 124.43H264.377V134.015C268.112 134.51 271.622 134.87 274.862 135.095L274.592 140.36C273.647 140.405 272.702 140.405 271.757 140.405C269.282 140.405 266.852 140.315 264.377 140.09V149.225H258.617V124.43Z" fill="#DEB283"/>
<path opacity="0.5" d="M120.3 185.85L121.75 191.65C119.8 192.2 118.05 192.45 116.5 192.45C111.65 192.45 108.9 189.75 108.6 183.85L108 164.95L115.2 164.9V182.75C115.2 185.05 115.95 186.25 117.9 186.25C118.55 186.25 119.35 186.15 120.3 185.85ZM139.22 192.4C134.42 192.4 129.57 189.2 129.57 183.3C129.57 177.45 133.77 173.55 139.52 173.55C145.27 173.55 148.97 178.7 148.97 183.8C148.97 184.25 148.92 184.65 148.87 185.1H135.52C136.17 187 137.77 187.8 139.42 187.8C140.72 187.8 142.02 187.25 142.77 186.35L147.17 188.9C145.22 191.5 142.77 192.4 139.22 192.4ZM135.42 180.9H143.42C143.22 179.15 141.37 178.25 139.52 178.25C137.67 178.25 135.82 179.1 135.42 180.9ZM167.738 192.4C162.838 192.4 160.038 190.5 157.988 187.9L163.888 185.15C164.688 186.4 166.038 187.35 167.738 187.35C168.388 187.35 168.888 187.05 168.888 186.6C168.888 185.95 167.888 185.05 164.738 184.3C160.838 183.4 158.938 181.15 158.938 178.9C158.938 176.2 161.738 173.6 167.138 173.6C172.588 173.6 175.138 175.45 176.438 178L170.838 179.7C170.188 178.9 168.938 178.25 167.438 178.25C166.638 178.25 165.838 178.6 165.838 179.1C165.838 179.55 166.588 180.15 168.688 180.65C173.588 181.8 176.088 184.6 176.088 187.2C176.088 189.95 173.338 192.4 167.738 192.4ZM195.326 192.4C190.426 192.4 187.626 190.5 185.576 187.9L191.476 185.15C192.276 186.4 193.626 187.35 195.326 187.35C195.976 187.35 196.476 187.05 196.476 186.6C196.476 185.95 195.476 185.05 192.326 184.3C188.426 183.4 186.526 181.15 186.526 178.9C186.526 176.2 189.326 173.6 194.726 173.6C200.176 173.6 202.726 175.45 204.026 178L198.426 179.7C197.776 178.9 196.526 178.25 195.026 178.25C194.226 178.25 193.426 178.6 193.426 179.1C193.426 179.55 194.176 180.15 196.276 180.65C201.176 181.8 203.676 184.6 203.676 187.2C203.676 189.95 200.926 192.4 195.326 192.4ZM222.814 192.4C218.014 192.4 213.164 189.2 213.164 183.3C213.164 177.45 217.364 173.55 223.114 173.55C228.864 173.55 232.564 178.7 232.564 183.8C232.564 184.25 232.514 184.65 232.464 185.1H219.114C219.764 187 221.364 187.8 223.014 187.8C224.314 187.8 225.614 187.25 226.364 186.35L230.764 188.9C228.814 191.5 226.364 192.4 222.814 192.4ZM219.014 180.9H227.014C226.814 179.15 224.964 178.25 223.114 178.25C221.264 178.25 219.414 179.1 219.014 180.9ZM256.032 174.6L256.132 164.95H262.632L261.582 192H255.782V191.25C254.532 192 252.982 192.4 251.082 192.4C244.532 192.4 241.582 187.75 241.582 182.8C241.582 177.5 244.582 173.5 251.382 173.5C253.232 173.5 254.782 173.9 256.032 174.6ZM251.982 186.75C254.132 186.75 256.282 185.5 256.282 182.85C256.282 180.15 254.132 178.8 251.982 178.8C249.832 178.8 247.682 180.15 247.682 183C247.682 185.5 249.832 186.75 251.982 186.75Z" fill="#DEB283"/>
</svg>
