<svg width="586" height="870" viewBox="0 0 586 870" fill="none" xmlns="http://www.w3.org/2000/svg">
<path d="M-80 185.162C-139.111 181.803 -177.362 184.198 -229 213.162C-312.734 260.129 -350 427.162 -350 427.162V734.162L-201 794.662C-201 794.662 126.662 939.05 275.5 826.662C398 734.162 584.983 825.572 586 693.662C586.468 632.935 521.5 552.162 521.5 552.162C521.5 552.162 436.498 472.684 368 451.662C295.759 429.491 231.549 501.217 174.5 451.662C124.266 408.027 171.979 340.797 134 286.162C81.2528 210.282 12.2636 190.405 -80 185.162Z" fill="#F6DFB1"/>
<path d="M95 -221.5C95 -221.5 162.818 -201.727 180 -166C207.794 -108.208 82.9449 -88.4851 95 -25.5C107.971 42.2682 175.079 -4.78505 180.5 64C186.213 136.5 97.9478 100.887 73 174.5C60.5278 211.301 95.1263 242.058 73 274C35.5503 328.064 -90.3284 284.125 -86 218.5" stroke="#DEB283" stroke-width="4"/>
</svg>
