<svg width="1128" height="1666" viewBox="0 0 1128 1666" fill="none" xmlns="http://www.w3.org/2000/svg">
<path d="M1112.94 80.6381C1329.25 111.368 1249.43 337.559 1249.43 337.559L1307 1324C1307 1324 1189.82 1297.29 1127.34 1257.16C1067.62 1218.81 1035.38 1190.06 999.288 1130.6C961.089 1067.65 1008.41 994.848 947.671 950.944C871.884 896.163 804.014 1013.65 709.939 1000.72C601.51 985.812 578.388 884.239 472.206 858.51C367.192 833.063 286.795 929.515 195.265 874.152C125.255 831.807 129.431 767.818 85.5801 700.66C54.6817 653.339 17.1196 634.849 5.17783 580.258C-14.7613 489.109 23.567 409.03 108.41 363.156C179.42 324.761 239.498 386.479 317.357 363.156C484.603 313.057 342.756 -28.7792 559.06 1.95032L1112.94 80.6381Z" fill="white"/>
<path d="M919.584 1163.8C899.811 1100.99 899.884 1056.3 913.048 991.804C953.864 791.836 1435.92 873.999 1435.92 873.999L1462.48 1160.7L1394.42 1617.15C1358.4 1631.6 1339.01 1661.68 1305.82 1646.81C1267.84 1629.78 1290.95 1574.97 1289.45 1535.39C1289.45 1535.39 1278.48 1452.7 1241.44 1426.71C1167.77 1375.01 1117.56 1396.63 1059.28 1355.13C971.895 1292.9 946.916 1250.62 919.584 1163.8Z" fill="#F6DFB1"/>
<path d="M1198.42 681C1198.42 681 1201.82 727.569 1145.75 757.872C1104.99 779.903 1077.5 776.5 1058 817C1040.01 854.362 1063.78 859.727 1065.76 900.464C1067.38 933.764 1021.06 928.5 1016.2 976.141C1007.81 1058.49 1145.75 1168.5 1145.75 1168.5" stroke="#DEB283" stroke-width="4"/>
</svg>
