<svg width="182" height="551" viewBox="0 0 182 551" fill="none" xmlns="http://www.w3.org/2000/svg">
<path d="M158.174 215.637C148.811 189.371 137.396 174.881 112.865 155.032C47.8016 102.389 -128.163 128.451 -128.163 128.451L-184.216 288.646C-184.216 288.646 -239.287 375.536 -210.841 424.742C-179.664 478.673 -117.385 498.487 -39.8796 501.649C8.49693 503.623 38.4569 497.406 80.6344 479.321C116.595 463.902 137.566 451.902 158.174 424.742C175.991 401.26 181.72 384.851 181.997 357.757C182.282 329.861 162.915 316.311 158.174 288.646C153.329 260.373 167.986 243.16 158.174 215.637Z" fill="#DD8F69"/>
<path d="M-125.243 4.07856C-125.243 4.07856 -40.5593 40.107 0.395838 74.9888C54.8549 121.372 30.1953 151.772 49.1645 212.02C60.2962 247.376 118.142 275.855 105.805 310.048C84.8558 368.105 -15.6944 335.701 -43.9346 391.594C-78.282 459.575 -161.92 467.113 -218 521.05" stroke="#DEB283" stroke-width="4"/>
</svg>
