<svg width="133" height="650" viewBox="0 0 133 650" fill="none" xmlns="http://www.w3.org/2000/svg">
<path opacity="0.2" d="M18.3273 42.754C-2.84542 36.008 -4.33454 3.3369 -10 0V650C-10 650 9.54562 497.441 40.7212 418.155C62.3137 363.241 88.4524 353.429 108.094 296.15C121.122 258.158 133.619 235.57 132.976 190.829C132.06 127.037 108.845 90.9553 77.4701 62.2192C56.5117 43.0234 39.5 49.5 18.3273 42.754Z" fill="#DD8F69"/>
<path opacity="0.5" d="M120.707 398.01C116.991 380.615 99.9569 379.589 86.1142 368.446C76.8179 360.963 73.5482 352.517 61.9359 349.758C51.9648 347.389 44.8716 348.145 35.8941 353.115C24.5666 359.385 21.3846 368.414 17.6525 380.817C12.054 399.422 25.3903 410.547 25.1534 429.968C25.0648 437.236 21.2383 441.732 23.7925 448.532C26.6906 456.248 32.2125 458.967 39.7168 462.361C51.3341 467.616 60.3553 465.573 72.3638 461.247C84.7597 456.781 98.8739 440.349 98.8739 440.349C98.8739 440.349 124.59 416.188 120.707 398.01Z" fill="#F6DFB1"/>
</svg>
