<svg width="175" height="468" viewBox="0 0 175 468" fill="none" xmlns="http://www.w3.org/2000/svg">
<path opacity="0.2" d="M190.789 450.463C217.98 463.081 239.167 456.159 263.694 417.038C288.22 377.918 298.51 378.979 313.485 331.146C333.387 267.579 291.822 161.983 291.822 161.983C291.822 161.983 305.819 97.9925 280.566 74.8624C254.391 50.8882 224.399 66.5677 189.758 74.2086C81.7853 98.0243 -2.33939 204.603 31.947 309.953C41.1964 338.373 44.7905 353.881 70.5135 376.008C96.2364 398.135 115.931 391.11 145.032 400.787C174.133 410.464 168.986 440.345 190.789 450.463Z" fill="#F6DFB1"/>
<path opacity="0.2" d="M204.697 30.2947C204.697 30.2947 191.456 3.00026 153.589 3C119.422 2.99977 86.2189 5.98098 88.4463 40.0995C90.5591 72.464 130.031 70.3369 122.342 101.844C115.66 129.223 67.0738 104.492 56.1397 130.464C44.463 158.2 67.6167 178.713 88.4463 200.424C126.702 240.297 228 223.479 228 223.479" stroke="#DEB283" stroke-width="5"/>
</svg>
