<svg width="157" height="23" viewBox="0 0 157 23" fill="none" xmlns="http://www.w3.org/2000/svg">
<path d="M14.458 0.840096L17.786 1.2561L17.266 3.4921L14.25 3.1541L14.458 0.840096ZM11.338 0.892097L11.676 3.1541L8.582 3.4921L8.036 1.2821L11.338 0.892097ZM0.392 2.6861L5.644 3.1541L5.384 6.0661L0.132 5.5981L0.392 2.6861ZM8.972 8.1721H11.286L11.78 7.0801H7.594V3.7781H18.384V7.0801H14.796L14.016 8.1721H16.876V16.9861H8.972V8.1721ZM18.462 18.1561L17.708 21.4321C12.612 20.8861 8.582 20.2621 3.746 19.1961C3.59 19.6121 3.46 19.9761 3.33 20.2881L0.132 19.6901C0.86 17.4021 1.874 12.4361 2.264 10.0961H0.0800001V6.9241L5.852 6.9501L5.774 11.1361C5.748 12.8261 5.254 14.8021 4.682 16.5701C9.388 17.4281 13.47 17.7401 18.462 18.1561ZM11.65 10.7461H14.458V10.2001H11.65V10.7461ZM11.65 12.8001H14.458V12.2541H11.65V12.8001ZM11.65 14.9581H14.458V14.4121H11.65V14.9581ZM39.2929 13.1381H26.4489V0.866096H39.2929V13.1381ZM30.4009 3.6741V4.3501H35.3929V3.6741H30.4009ZM30.4009 6.6381V7.3141H35.3929V6.6381H30.4009ZM30.4009 9.6801V10.3561H35.3929V9.6801H30.4009ZM42.1269 17.2981H23.9269V14.0741H42.1269V17.2981ZM39.9949 20.8341L35.8349 22.0561C35.4449 21.0161 35.0549 19.8201 34.7429 18.5201L38.3569 17.7921C38.9029 18.8841 39.3969 19.9501 39.9949 20.8341ZM30.4529 22.0561L26.4489 21.3801C26.7349 20.3401 27.0469 19.1181 27.2549 17.9741L31.5709 18.6241C31.2849 19.7681 30.9209 21.0681 30.4529 22.0561ZM57.138 20.5741H52.484V9.0041L48.896 9.9661L47.726 5.6761L57.138 3.1541V20.5741ZM70.0308 20.9121C66.0528 20.9121 64.3108 18.5981 63.6348 15.8161L67.0668 14.8281C67.5088 16.5961 68.3668 17.6101 69.7448 17.6101C71.6168 17.6101 72.5528 16.3101 72.5528 15.0361C72.5528 14.1001 72.0588 13.1901 71.1228 12.8261C70.7068 12.6701 70.2648 12.5661 69.8228 12.5661C68.9128 12.5661 68.0548 12.9301 67.5088 13.7621H63.8428V3.5701L75.7508 3.5441V7.5221H67.9768V9.7061C68.8608 9.3941 69.7188 9.2641 70.5248 9.2641C73.8788 9.2641 76.3488 11.7601 76.3488 15.1401C76.3488 18.0001 74.3208 20.9121 70.0308 20.9121ZM102.699 6.5341V9.8361H99.2925V13.3721H102.517V16.7261H99.2925V21.2241H95.6265V16.7261H92.6625V13.3721H95.6265V9.8361H94.0405C93.9625 10.2781 93.8585 10.7201 93.7545 11.1361L90.8165 10.8501C91.1545 8.6401 91.3625 6.3001 91.4925 3.8301L94.7685 3.9861C94.7165 4.8701 94.6645 5.7021 94.5605 6.5341H95.6265V1.2301H99.2925V6.5341H102.699ZM87.4885 3.3621L90.8165 5.6501C90.1405 6.8201 89.2825 8.1721 88.3465 9.5241L89.8805 9.4721V19.8721L86.3705 19.9241L86.2145 12.6441L85.4085 13.7621L82.3405 11.6301C83.5365 9.9921 86.3705 5.5461 87.4885 3.3621ZM117.658 13.8401L122.182 13.6321L122.338 16.7261L117.736 16.9341L117.814 20.7041L114.486 20.8861L114.278 17.0901L109.91 17.2981L109.754 14.2041L114.096 13.9961L113.94 11.2661L108.844 11.4741L108.688 8.3801L113.758 8.1721L113.654 6.4301L117.502 6.2481L117.528 8.0161L122.52 7.8081L122.676 10.9021L117.606 11.1101L117.658 13.8401ZM135.839 14.8541L133.135 14.9841L132.745 8.9781L135.553 8.8741L135.839 14.8541ZM132.381 15.0881L129.703 15.2441L129.183 9.1341L132.017 9.0301L132.381 15.0881ZM137.633 20.9381L135.137 20.3141C136.229 16.7521 136.879 13.8921 137.477 9.7061L140.727 10.2781C139.869 14.4381 138.959 17.7661 137.633 20.9381ZM150.544 6.4041V11.9421C152.702 12.2281 154.73 12.4361 156.602 12.5661L156.446 15.6081C155.9 15.6341 155.354 15.6341 154.808 15.6341C153.378 15.6341 151.974 15.5821 150.544 15.4521V20.7301H147.216V6.4041H150.544Z" fill="#62300C"/>
</svg>
