<svg width="354" height="200" viewBox="0 0 354 200" fill="none" xmlns="http://www.w3.org/2000/svg">
<path d="M66 197.6C40.2 197.6 18 178.6 18 144C18 109.4 36 86.4 67.2 86.4C96.6 86.4 113.6 110.2 113.6 129.8L87.8 130C85.6 118.6 76.8 112.8 67.6 112.8C55.8 112.8 43.4 122.2 43.4 141.2C43.4 160.8 55.8 172.6 67.4 172.6C75.2 172.6 82.6 167.6 86.2 156.4L110.2 168C105 184.2 93.2 197.6 66 197.6Z" fill="#62300C"/>
<g opacity="0.2">
<rect x="110.2" y="107.72" width="215.18" height="74.7867" rx="37.3934" fill="#62300C"/>
<ellipse cx="156.31" cy="111.98" rx="37.63" ry="26.98" fill="#62300C"/>
<ellipse cx="176.98" cy="176.353" rx="24.38" ry="17.5133" fill="#62300C"/>
<ellipse cx="119.21" cy="153.634" rx="30.21" ry="21.3" fill="#62300C"/>
<ellipse cx="323.79" cy="148.9" rx="30.21" ry="21.3" fill="#62300C"/>
<ellipse cx="230.51" cy="119.553" rx="38.69" ry="34.5534" fill="#62300C"/>
<ellipse cx="300.47" cy="173.987" rx="31.27" ry="24.6134" fill="#62300C"/>
<ellipse cx="235.28" cy="177.773" rx="33.92" ry="20.8267" fill="#62300C"/>
<ellipse cx="292.52" cy="115.767" rx="26.5" ry="23.1934" fill="#62300C"/>
<ellipse cx="121.86" cy="122.393" rx="22.26" ry="16.5667" fill="#62300C"/>
<ellipse cx="133.52" cy="182.033" rx="22.26" ry="16.5667" fill="#62300C"/>
<ellipse cx="322.73" cy="124.76" rx="23.85" ry="18.9333" fill="#62300C"/>
</g>
<path d="M131.185 132.12L130.915 133.695L144.28 133.65C143.65 144.585 142.48 151.065 140.41 157.275L135.1 156.105C136.405 150.165 136.855 144.9 137.17 139.005L130.015 139.05L128.35 148.68L122.5 148.185L123.85 131.67L131.185 132.12ZM187.327 138.105L167.572 138.15L167.482 132.795L187.237 132.75L187.327 138.105ZM178.102 157.32L174.592 153.855C177.877 150.93 179.767 148.725 181.477 145.8L165.952 145.845L165.862 140.58L188.632 140.535V147.645C184.087 152.685 181.342 155.025 178.102 157.32ZM220.719 139.23L210.279 139.275L210.234 133.92L220.674 133.875L220.719 139.23ZM218.784 157.545L215.004 152.64C221.574 148.275 225.759 144.63 230.979 137.745L235.434 141.03C230.439 148.14 225.714 152.685 218.784 157.545ZM219.819 146.295L210.279 146.34L210.234 140.985L219.774 140.94L219.819 146.295ZM268.544 146.655L263.864 146.88L263.189 136.485L268.049 136.305L268.544 146.655ZM262.559 147.06L257.924 147.33L257.024 136.755L261.929 136.575L262.559 147.06ZM271.649 157.185L267.329 156.105C269.219 149.94 270.344 144.99 271.379 137.745L277.004 138.735C275.519 145.935 273.944 151.695 271.649 157.185ZM307.269 132.12L306.999 133.695L320.364 133.65C319.734 144.585 318.564 151.065 316.494 157.275L311.184 156.105C312.489 150.165 312.939 144.9 313.254 139.005L306.099 139.05L304.434 148.68L298.584 148.185L299.934 131.67L307.269 132.12Z" fill="#62300C"/>
<path opacity="0.5" d="M127.3 192.85L128.75 198.65C126.8 199.2 125.05 199.45 123.5 199.45C118.65 199.45 115.9 196.75 115.6 190.85L115 171.95L122.2 171.9V189.75C122.2 192.05 122.95 193.25 124.9 193.25C125.55 193.25 126.35 193.15 127.3 192.85ZM151.22 181.7V180.95H157.72L156.67 199H150.87V198.2C149.62 198.95 148.02 199.4 146.07 199.4C139.52 199.4 136.57 194.75 136.57 189.8C136.57 184.5 139.57 180.5 146.37 180.5C148.32 180.5 149.92 180.95 151.22 181.7ZM146.92 193.75C149.12 193.75 151.27 192.45 151.27 189.85C151.27 187.15 149.12 185.8 146.97 185.8C144.82 185.8 142.67 187.15 142.67 190C142.67 192.5 144.82 193.75 146.92 193.75ZM176.984 199.4C172.084 199.4 169.284 197.5 167.234 194.9L173.134 192.15C173.934 193.4 175.284 194.35 176.984 194.35C177.634 194.35 178.134 194.05 178.134 193.6C178.134 192.95 177.134 192.05 173.984 191.3C170.084 190.4 168.184 188.15 168.184 185.9C168.184 183.2 170.984 180.6 176.384 180.6C181.834 180.6 184.384 182.45 185.684 185L180.084 186.7C179.434 185.9 178.184 185.25 176.684 185.25C175.884 185.25 175.084 185.6 175.084 186.1C175.084 186.55 175.834 187.15 177.934 187.65C182.834 188.8 185.334 191.6 185.334 194.2C185.334 196.95 182.584 199.4 176.984 199.4ZM204.572 199.4C199.672 199.4 196.872 197.5 194.822 194.9L200.722 192.15C201.522 193.4 202.872 194.35 204.572 194.35C205.222 194.35 205.722 194.05 205.722 193.6C205.722 192.95 204.722 192.05 201.572 191.3C197.672 190.4 195.772 188.15 195.772 185.9C195.772 183.2 198.572 180.6 203.972 180.6C209.422 180.6 211.972 182.45 213.272 185L207.672 186.7C207.022 185.9 205.772 185.25 204.272 185.25C203.472 185.25 202.672 185.6 202.672 186.1C202.672 186.55 203.422 187.15 205.522 187.65C210.422 188.8 212.922 191.6 212.922 194.2C212.922 196.95 210.172 199.4 204.572 199.4ZM229.86 178H223.21L222.91 171.95L230.11 171.9L229.86 178ZM229.86 198.95H223.46L223.06 181L230.01 180.95L229.86 198.95ZM249.548 199.4C244.748 199.4 239.598 196.2 239.598 190.3C239.598 184.45 243.598 180.55 249.348 180.55C255.598 180.55 259.348 183.3 259.598 188.75H253.248C253.048 187.2 251.448 186.35 249.748 186.35C247.848 186.35 245.898 187.5 245.898 190.1C245.898 192.4 247.748 193.6 249.598 193.6C250.998 193.6 252.448 192.85 253.048 191.35L258.548 194.4C256.898 197.15 254.548 199.4 249.548 199.4Z" fill="#62300C"/>
</svg>
