<svg width="208" height="87" viewBox="0 0 208 87" fill="none" xmlns="http://www.w3.org/2000/svg">
<mask id="path-1-outside-1_187_2" maskUnits="userSpaceOnUse" x="11" y="12" width="158" height="27" fill="black">
<rect fill="white" x="11" y="12" width="158" height="27"/>
<path d="M22.837 23.889L22.804 24.747C26.302 25.242 28.975 27.288 28.975 30.621C28.975 32.271 28.282 34.251 26.731 36.495L23.365 34.911C24.421 33.393 24.916 32.106 24.916 31.017C24.916 29.697 24.124 28.773 22.639 28.41L22.309 35.439C21.055 35.769 19.933 35.934 18.91 35.934C15.016 35.934 13.135 33.591 13.135 31.017C13.135 28.443 15.049 25.638 18.778 24.846V23.922H13.498V20.061L18.811 20.094V18.015L23.101 18.147L23.002 20.094L26.599 20.127L26.467 23.889H22.837ZM27.721 25.374L28.381 19.83L32.176 20.325L31.285 25.803L27.721 25.374ZM16.732 30.885C16.732 31.776 17.425 32.535 18.712 32.469L18.745 28.575C17.359 29.07 16.732 30.06 16.732 30.885ZM65.1745 21.645C67.8145 22.833 68.8705 25.143 68.8705 27.75C68.8705 30.621 67.5505 33.855 65.7025 36.297L62.5345 34.713C64.1515 32.568 65.1745 30.159 65.1745 28.179C65.1745 26.826 64.7125 25.671 63.6235 24.945C62.7985 26.628 61.9405 28.08 60.9835 29.433L62.5345 31.677L59.8615 33.558L58.8385 32.139C57.9805 33.129 57.0235 34.119 55.9345 35.142C52.8325 33.525 51.3145 30.786 51.3145 28.146C51.3145 26.595 51.8425 25.044 52.8655 23.79L50.9845 21.15L53.8555 19.104L55.6375 21.711C56.9575 21.117 58.5415 20.754 60.4225 20.754C60.7855 20.754 61.1155 20.754 61.4455 20.787C61.8745 19.83 62.3035 18.774 62.7655 17.619L66.5275 18.444C66.0655 19.599 65.6035 20.655 65.1745 21.645ZM57.6175 24.549L58.7065 26.166C59.1025 25.506 59.4655 24.846 59.8615 24.087C59.0035 24.12 58.2445 24.285 57.6175 24.549ZM55.6375 30.555C56.0005 30.126 56.3635 29.664 56.7265 29.169L55.1095 26.892C54.8455 27.42 54.7465 27.981 54.7465 28.509C54.7465 29.4 55.0765 30.192 55.6375 30.555ZM105.507 18.246L103.032 18.51L102.57 14.121L105.21 13.89L105.507 18.246ZM102.207 18.576L99.6656 18.939L98.9066 14.649L101.745 14.253L102.207 18.576ZM100.524 33.393L96.9926 36.099C94.7156 34.581 93.0656 32.436 93.0656 29.961C93.0656 28.047 94.0886 25.935 96.6626 23.856L88.0166 23.922V20.061L103.065 20.094V24.879C99.1706 26.463 97.6856 28.179 97.6856 29.73C97.6856 31.083 98.8406 32.37 100.524 33.393ZM131.717 31.875C132.674 31.875 133.697 31.743 135.149 31.545L135.347 35.439C133.994 35.703 132.74 35.835 131.453 35.835C130.463 35.835 129.44 35.736 128.384 35.604C125.216 35.175 123.104 32.832 123.104 30.126C123.104 28.509 123.83 26.76 125.546 25.176L122.543 19.467L126.503 17.982L128.945 22.866C130.661 22.041 132.806 21.348 135.38 20.853L135.974 25.044C129.704 26.232 127.691 28.41 127.691 29.961C127.691 30.819 128.318 31.446 129.176 31.611C130.133 31.776 130.892 31.875 131.717 31.875ZM165.869 18.939L165.11 22.47L156.431 21.348L156.926 17.619L165.869 18.939ZM162.206 36.297L158.774 34.152C160.886 31.875 162.107 29.961 162.107 28.674C162.107 27.552 161.15 26.892 159.038 26.892C158.081 26.892 156.86 27.024 155.375 27.321L154.781 23.625C156.53 23.295 158.081 23.13 159.434 23.13C164.516 23.13 166.793 25.275 166.793 28.179C166.793 30.621 165.143 33.624 162.206 36.297Z"/>
</mask>
<path d="M22.837 23.889V22.389H21.3936L21.3381 23.8313L22.837 23.889ZM22.804 24.747L21.3051 24.6893L21.2531 26.0425L22.5938 26.2322L22.804 24.747ZM26.731 36.495L26.0923 37.8522L27.2423 38.3934L27.9649 37.3479L26.731 36.495ZM23.365 34.911L22.1336 34.0544L21.1196 35.5121L22.7263 36.2682L23.365 34.911ZM22.639 28.41L22.9952 26.9529L21.2261 26.5205L21.1407 28.3397L22.639 28.41ZM22.309 35.439L22.6907 36.8896L23.7557 36.6094L23.8074 35.5093L22.309 35.439ZM18.778 24.846L19.0896 26.3133L20.278 26.0609V24.846H18.778ZM18.778 23.922H20.278V22.422H18.778V23.922ZM13.498 23.922H11.998V25.422H13.498V23.922ZM13.498 20.061L13.5073 18.561L11.998 18.5517L11.998 20.061H13.498ZM18.811 20.094L18.8017 21.594L20.311 21.6033V20.094H18.811ZM18.811 18.015L18.8571 16.5157L17.311 16.4681V18.015H18.811ZM23.101 18.147L24.5991 18.2232L24.6768 16.6948L23.1471 16.6477L23.101 18.147ZM23.002 20.094L21.5039 20.0178L21.4245 21.5796L22.9882 21.5939L23.002 20.094ZM26.599 20.127L28.0981 20.1796L28.1521 18.6412L26.6128 18.6271L26.599 20.127ZM26.467 23.889V25.389H27.9153L27.9661 23.9416L26.467 23.889ZM27.721 25.374L26.2315 25.1967L26.0544 26.6842L27.5417 26.8632L27.721 25.374ZM28.381 19.83L28.575 18.3426L27.0708 18.1464L26.8915 19.6527L28.381 19.83ZM32.176 20.325L33.6565 20.5658L33.9051 19.0378L32.37 18.8376L32.176 20.325ZM31.285 25.803L31.1057 27.2922L32.5345 27.4642L32.7655 26.0438L31.285 25.803ZM18.712 32.469L18.7888 33.967L20.2 33.8947L20.2119 32.4817L18.712 32.469ZM18.745 28.575L20.2449 28.5877L20.2631 26.44L18.2405 27.1624L18.745 28.575ZM21.3381 23.8313L21.3051 24.6893L24.3029 24.8046L24.3359 23.9466L21.3381 23.8313ZM22.5938 26.2322C24.1275 26.4492 25.369 26.9925 26.2006 27.7372C27.0019 28.4548 27.475 29.3989 27.475 30.621H30.475C30.475 28.5101 29.6116 26.7647 28.2019 25.5023C26.8225 24.267 24.9785 23.5398 23.0142 23.2618L22.5938 26.2322ZM27.475 30.621C27.475 31.8605 26.9467 33.5448 25.4971 35.6421L27.9649 37.3479C29.6173 34.9572 30.475 32.6815 30.475 30.621H27.475ZM27.3697 35.1378L24.0037 33.5538L22.7263 36.2682L26.0923 37.8522L27.3697 35.1378ZM24.5964 35.7676C25.731 34.1366 26.416 32.5461 26.416 31.017H23.416C23.416 31.6659 23.111 32.6494 22.1336 34.0544L24.5964 35.7676ZM26.416 31.017C26.416 30.0404 26.1153 29.1171 25.4665 28.3706C24.8306 27.639 23.9578 27.1882 22.9952 26.9529L22.2828 29.8671C22.8052 29.9948 23.0709 30.1875 23.2022 30.3386C23.3207 30.4749 23.416 30.6736 23.416 31.017H26.416ZM21.1407 28.3397L20.8107 35.3687L23.8074 35.5093L24.1374 28.4803L21.1407 28.3397ZM21.9273 33.9884C20.7641 34.2945 19.7734 34.434 18.91 34.434V37.434C20.0926 37.434 21.3459 37.2435 22.6907 36.8896L21.9273 33.9884ZM18.91 34.434C17.2689 34.434 16.2208 33.9463 15.5944 33.3523C14.9651 32.7555 14.635 31.9341 14.635 31.017H11.635C11.635 32.6739 12.2454 34.311 13.5301 35.5292C14.8177 36.7502 16.6571 37.434 18.91 37.434V34.434ZM14.635 31.017C14.635 29.1997 16.0051 26.9684 19.0896 26.3133L18.4664 23.3787C14.0929 24.3076 11.635 27.6863 11.635 31.017H14.635ZM20.278 24.846V23.922H17.278V24.846H20.278ZM18.778 22.422H13.498V25.422H18.778V22.422ZM14.998 23.922V20.061H11.998V23.922H14.998ZM13.4887 21.561L18.8017 21.594L18.8203 18.594L13.5073 18.561L13.4887 21.561ZM20.311 20.094V18.015H17.311V20.094H20.311ZM18.7649 19.5143L23.0549 19.6463L23.1471 16.6477L18.8571 16.5157L18.7649 19.5143ZM21.6029 18.0708L21.5039 20.0178L24.5001 20.1702L24.5991 18.2232L21.6029 18.0708ZM22.9882 21.5939L26.5852 21.6269L26.6128 18.6271L23.0158 18.5941L22.9882 21.5939ZM25.0999 20.0744L24.9679 23.8364L27.9661 23.9416L28.0981 20.1796L25.0999 20.0744ZM26.467 22.389H22.837V25.389H26.467V22.389ZM29.2105 25.5513L29.8705 20.0073L26.8915 19.6527L26.2315 25.1967L29.2105 25.5513ZM28.187 21.3174L31.982 21.8124L32.37 18.8376L28.575 18.3426L28.187 21.3174ZM30.6955 20.0842L29.8045 25.5622L32.7655 26.0438L33.6565 20.5658L30.6955 20.0842ZM31.4643 24.3137L27.9003 23.8847L27.5417 26.8632L31.1057 27.2922L31.4643 24.3137ZM15.232 30.885C15.232 31.7292 15.5673 32.5649 16.2506 33.1639C16.9331 33.7621 17.8349 34.016 18.7888 33.967L18.6352 30.971C18.4668 30.9796 18.3598 30.9592 18.3014 30.9412C18.2721 30.9321 18.2535 30.9233 18.243 30.9175C18.2326 30.9118 18.2284 30.9081 18.2281 30.9079C18.2279 30.9076 18.2295 30.9091 18.2317 30.9121C18.2338 30.915 18.2351 30.9176 18.2357 30.9189C18.2372 30.9223 18.232 30.9128 18.232 30.885H15.232ZM20.2119 32.4817L20.2449 28.5877L17.2451 28.5623L17.2121 32.4563L20.2119 32.4817ZM18.2405 27.1624C16.4037 27.8184 15.232 29.2837 15.232 30.885H18.232C18.232 30.8363 18.3143 30.3216 19.2495 29.9876L18.2405 27.1624ZM65.1745 21.645L63.7981 21.0486L63.21 22.4059L64.5589 23.0129L65.1745 21.645ZM65.7025 36.297L65.0316 37.6386L66.1464 38.196L66.8986 37.2022L65.7025 36.297ZM62.5345 34.713L61.3367 33.8101L60.252 35.2488L61.8636 36.0546L62.5345 34.713ZM63.6235 24.945L64.4555 23.6969L63.0304 22.7469L62.2766 24.2848L63.6235 24.945ZM60.9835 29.433L59.7588 28.5668L59.1532 29.4231L59.7495 30.2859L60.9835 29.433ZM62.5345 31.677L63.3977 32.9037L64.6141 32.0477L63.7684 30.8241L62.5345 31.677ZM59.8615 33.558L58.6447 34.4352L59.5119 35.6381L60.7247 34.7847L59.8615 33.558ZM58.8385 32.139L60.0552 31.2618L58.9465 29.724L57.7049 31.1566L58.8385 32.139ZM55.9345 35.142L55.2411 36.4721L56.1853 36.9644L56.9615 36.2353L55.9345 35.142ZM52.8655 23.79L54.0277 24.7382L54.7511 23.8515L54.0871 22.9196L52.8655 23.79ZM50.9845 21.15L50.1139 19.9285L48.8925 20.7989L49.7628 22.0204L50.9845 21.15ZM53.8555 19.104L55.0938 18.2575L54.2306 16.9947L52.9849 17.8825L53.8555 19.104ZM55.6375 21.711L54.3991 22.5575L55.1078 23.5942L56.253 23.0789L55.6375 21.711ZM61.4455 20.787L61.2962 22.2796L62.372 22.3871L62.8142 21.4006L61.4455 20.787ZM62.7655 17.619L63.0868 16.1538L61.8449 15.8815L61.3727 17.0619L62.7655 17.619ZM66.5275 18.444L67.9202 19.0011L68.5774 17.3579L66.8488 16.9788L66.5275 18.444ZM57.6175 24.549L57.0354 23.1665L55.3546 23.8743L56.3733 25.3869L57.6175 24.549ZM58.7065 26.166L57.4623 27.0039L58.7795 28.9597L59.9927 26.9377L58.7065 26.166ZM59.8615 24.087L61.1913 24.7808L62.3872 22.4887L59.8038 22.5881L59.8615 24.087ZM55.6375 30.555L54.8226 31.8144L55.9303 32.5311L56.7825 31.5239L55.6375 30.555ZM56.7265 29.169L57.9361 30.056L58.5762 29.1831L57.9494 28.3005L56.7265 29.169ZM55.1095 26.892L56.3324 26.0235L54.8855 23.9859L53.7678 26.2212L55.1095 26.892ZM64.5589 23.0129C66.5366 23.9029 67.3705 25.5841 67.3705 27.75H70.3705C70.3705 24.7019 69.0923 21.7631 65.79 20.2771L64.5589 23.0129ZM67.3705 27.75C67.3705 30.2148 66.2112 33.139 64.5063 35.3918L66.8986 37.2022C68.8897 34.571 70.3705 31.0272 70.3705 27.75H67.3705ZM66.3733 34.9554L63.2053 33.3714L61.8636 36.0546L65.0316 37.6386L66.3733 34.9554ZM63.7322 35.6159C65.4537 33.3323 66.6745 30.6098 66.6745 28.179H63.6745C63.6745 29.7082 62.8492 31.8037 61.3367 33.8101L63.7322 35.6159ZM66.6745 28.179C66.6745 26.4716 66.0709 24.7739 64.4555 23.6969L62.7914 26.1931C63.354 26.5681 63.6745 27.1804 63.6745 28.179H66.6745ZM62.2766 24.2848C61.4836 25.9024 60.6657 27.2847 59.7588 28.5668L62.2081 30.2992C63.2152 28.8753 64.1133 27.3536 64.9703 25.6052L62.2766 24.2848ZM59.7495 30.2859L61.3005 32.5299L63.7684 30.8241L62.2174 28.5801L59.7495 30.2859ZM61.6712 30.4503L58.9982 32.3313L60.7247 34.7847L63.3977 32.9037L61.6712 30.4503ZM61.0782 32.6808L60.0552 31.2618L57.6217 33.0162L58.6447 34.4352L61.0782 32.6808ZM57.7049 31.1566C56.8846 32.1031 55.9639 33.0563 54.9074 34.0487L56.9615 36.2353C58.083 35.1817 59.0763 34.1549 59.972 33.1214L57.7049 31.1566ZM56.6278 33.8119C53.9849 32.4342 52.8145 30.1868 52.8145 28.146H49.8145C49.8145 31.3852 51.68 34.6158 55.2411 36.4721L56.6278 33.8119ZM52.8145 28.146C52.8145 26.9326 53.2281 25.7183 54.0277 24.7382L51.7032 22.8418C50.4568 24.3697 49.8145 26.2574 49.8145 28.146H52.8145ZM54.0871 22.9196L52.2061 20.2796L49.7628 22.0204L51.6438 24.6604L54.0871 22.9196ZM51.855 22.3715L54.726 20.3255L52.9849 17.8825L50.1139 19.9285L51.855 22.3715ZM52.6171 19.9505L54.3991 22.5575L56.8758 20.8645L55.0938 18.2575L52.6171 19.9505ZM56.253 23.0789C57.3665 22.5778 58.739 22.254 60.4225 22.254V19.254C58.3439 19.254 56.5484 19.6562 55.0219 20.3431L56.253 23.0789ZM60.4225 22.254C60.7996 22.254 61.0536 22.2553 61.2962 22.2796L61.5947 19.2944C61.1773 19.2527 60.7713 19.254 60.4225 19.254V22.254ZM62.8142 21.4006C63.257 20.4127 63.6961 19.3313 64.1582 18.1761L61.3727 17.0619C60.9108 18.2167 60.4919 19.2473 60.0767 20.1734L62.8142 21.4006ZM62.4441 19.0842L66.2061 19.9092L66.8488 16.9788L63.0868 16.1538L62.4441 19.0842ZM65.1347 17.8869C64.6824 19.0178 64.23 20.0519 63.7981 21.0486L66.5508 22.2414C66.9769 21.2581 67.4485 20.1802 67.9202 19.0011L65.1347 17.8869ZM56.3733 25.3869L57.4623 27.0039L59.9506 25.3281L58.8616 23.7111L56.3733 25.3869ZM59.9927 26.9377C60.4084 26.245 60.7861 25.5575 61.1913 24.7808L58.5316 23.3932C58.1448 24.1345 57.7965 24.767 57.4202 25.3943L59.9927 26.9377ZM59.8038 22.5881C58.792 22.627 57.8516 22.8229 57.0354 23.1665L58.1995 25.9315C58.6373 25.7471 59.2149 25.613 59.9191 25.5859L59.8038 22.5881ZM56.7825 31.5239C57.1699 31.0661 57.5544 30.5765 57.9361 30.056L55.5168 28.282C55.1725 28.7515 54.831 29.1859 54.4924 29.5861L56.7825 31.5239ZM57.9494 28.3005L56.3324 26.0235L53.8865 27.7605L55.5035 30.0375L57.9494 28.3005ZM53.7678 26.2212C53.3797 26.9973 53.2465 27.7972 53.2465 28.509H56.2465C56.2465 28.1648 56.3112 27.8427 56.4511 27.5628L53.7678 26.2212ZM53.2465 28.509C53.2465 29.6821 53.6737 31.071 54.8226 31.8144L56.4523 29.2956C56.4769 29.3115 56.4238 29.2867 56.3595 29.1372C56.2968 28.9916 56.2465 28.776 56.2465 28.509H53.2465ZM105.507 18.246L105.666 19.7375L107.101 19.5844L107.003 18.144L105.507 18.246ZM103.032 18.51L101.54 18.667L101.697 20.1609L103.191 20.0015L103.032 18.51ZM102.57 14.121L102.439 12.6267L100.918 12.7598L101.078 14.278L102.57 14.121ZM105.21 13.89L106.706 13.788L106.602 12.2624L105.079 12.3957L105.21 13.89ZM102.207 18.576L102.419 20.0609L103.852 19.8562L103.698 18.4166L102.207 18.576ZM99.6656 18.939L98.1886 19.2003L98.4414 20.6291L99.8778 20.4239L99.6656 18.939ZM98.9066 14.649L98.6993 13.1634L97.1585 13.3784L97.4296 14.9103L98.9066 14.649ZM101.745 14.253L103.236 14.0936L103.072 12.5533L101.537 12.7674L101.745 14.253ZM100.524 33.393L101.436 34.5836L103.176 33.25L101.303 32.1112L100.524 33.393ZM96.9926 36.099L96.1606 37.3471L97.0534 37.9423L97.9051 37.2896L96.9926 36.099ZM96.6626 23.856L97.6051 25.0229L100.948 22.3232L96.6512 22.356L96.6626 23.856ZM88.0166 23.922H86.5166V25.4335L88.0281 25.422L88.0166 23.922ZM88.0166 20.061L88.0199 18.561L86.5166 18.5577V20.061H88.0166ZM103.065 20.094H104.565V18.5973L103.068 18.594L103.065 20.094ZM103.065 24.879L103.63 26.2684L104.565 25.8882V24.879H103.065ZM105.348 16.7545L102.873 17.0185L103.191 20.0015L105.666 19.7375L105.348 16.7545ZM104.523 18.353L104.061 13.964L101.078 14.278L101.54 18.667L104.523 18.353ZM102.7 15.6153L105.34 15.3843L105.079 12.3957L102.439 12.6267L102.7 15.6153ZM103.713 13.992L104.01 18.348L107.003 18.144L106.706 13.788L103.713 13.992ZM101.995 17.0911L99.4535 17.4541L99.8778 20.4239L102.419 20.0609L101.995 17.0911ZM101.143 18.6777L100.384 14.3877L97.4296 14.9103L98.1886 19.2003L101.143 18.6777ZM99.1139 16.1346L101.952 15.7386L101.537 12.7674L98.6993 13.1634L99.1139 16.1346ZM100.253 14.4124L100.715 18.7354L103.698 18.4166L103.236 14.0936L100.253 14.4124ZM99.6112 32.2024L96.0802 34.9084L97.9051 37.2896L101.436 34.5836L99.6112 32.2024ZM97.8247 34.8509C95.7563 33.472 94.5656 31.727 94.5656 29.961H91.5656C91.5656 33.145 93.675 35.69 96.1606 37.3471L97.8247 34.8509ZM94.5656 29.961C94.5656 28.6373 95.2611 26.9161 97.6051 25.0229L95.7201 22.6891C92.9161 24.9539 91.5656 27.4567 91.5656 29.961H94.5656ZM96.6512 22.356L88.0052 22.422L88.0281 25.422L96.6741 25.356L96.6512 22.356ZM89.5166 23.922V20.061H86.5166V23.922H89.5166ZM88.0134 21.561L103.061 21.594L103.068 18.594L88.0199 18.561L88.0134 21.561ZM101.565 20.094V24.879H104.565V20.094H101.565ZM102.499 23.4896C100.458 24.3199 98.9239 25.2323 97.8779 26.233C96.8184 27.2467 96.1856 28.4308 96.1856 29.73H99.1856C99.1856 29.4782 99.2953 29.0288 99.9518 28.4007C100.622 27.7597 101.777 27.0221 103.63 26.2684L102.499 23.4896ZM96.1856 29.73C96.1856 30.8497 96.6647 31.832 97.306 32.627C97.9462 33.4207 98.8062 34.1045 99.7445 34.6748L101.303 32.1112C100.558 31.6585 99.9991 31.1873 99.641 30.7435C99.2841 30.301 99.1856 29.9633 99.1856 29.73H96.1856ZM135.149 31.545L136.647 31.4688L136.564 29.8381L134.946 30.0588L135.149 31.545ZM135.347 35.439L135.634 36.9112L136.911 36.6621L136.845 35.3628L135.347 35.439ZM128.384 35.604L128.183 37.0904L128.19 37.0915L128.198 37.0924L128.384 35.604ZM125.546 25.176L126.563 26.2782L127.41 25.497L126.873 24.4777L125.546 25.176ZM122.543 19.467L122.016 18.0625L120.423 18.6598L121.215 20.1653L122.543 19.467ZM126.503 17.982L127.845 17.3112L127.241 16.1034L125.976 16.5775L126.503 17.982ZM128.945 22.866L127.603 23.5368L128.264 24.8578L129.595 24.2179L128.945 22.866ZM135.38 20.853L136.865 20.6425L136.644 19.0824L135.097 19.38L135.38 20.853ZM135.974 25.044L136.253 26.5178L137.66 26.2512L137.459 24.8335L135.974 25.044ZM129.176 31.611L128.893 33.084L128.907 33.0867L128.921 33.0892L129.176 31.611ZM131.717 33.375C132.794 33.375 133.922 33.2262 135.352 33.0312L134.946 30.0588C133.472 30.2598 132.553 30.375 131.717 30.375V33.375ZM133.651 31.6212L133.849 35.5152L136.845 35.3628L136.647 31.4688L133.651 31.6212ZM135.06 33.9668C133.789 34.2146 132.632 34.335 131.453 34.335V37.335C132.848 37.335 134.198 37.1914 135.634 36.9112L135.06 33.9668ZM131.453 34.335C130.556 34.335 129.606 34.2451 128.57 34.1156L128.198 37.0924C129.274 37.2269 130.369 37.335 131.453 37.335V34.335ZM128.585 34.1176C126.056 33.7751 124.604 31.9799 124.604 30.126H121.604C121.604 33.6841 124.376 36.575 128.183 37.0904L128.585 34.1176ZM124.604 30.126C124.604 28.989 125.107 27.6227 126.563 26.2782L124.528 24.0738C122.553 25.8973 121.604 28.029 121.604 30.126H124.604ZM126.873 24.4777L123.87 18.7687L121.215 20.1653L124.218 25.8743L126.873 24.4777ZM123.07 20.8715L127.03 19.3865L125.976 16.5775L122.016 18.0625L123.07 20.8715ZM125.161 18.6528L127.603 23.5368L130.287 22.1952L127.845 17.3112L125.161 18.6528ZM129.595 24.2179C131.171 23.4601 133.188 22.802 135.663 22.326L135.097 19.38C132.424 19.894 130.151 20.6219 128.295 21.5141L129.595 24.2179ZM133.895 21.0635L134.489 25.2545L137.459 24.8335L136.865 20.6425L133.895 21.0635ZM135.695 23.5702C132.446 24.1858 130.152 25.0826 128.63 26.1312C127.125 27.1687 126.191 28.5012 126.191 29.961H129.191C129.191 29.8698 129.264 29.3378 130.332 28.6015C131.384 27.8764 133.232 27.0902 136.253 26.5178L135.695 23.5702ZM126.191 29.961C126.191 31.6819 127.48 32.8123 128.893 33.084L129.459 30.138C129.306 30.1085 129.233 30.0496 129.211 30.0258C129.201 30.0144 129.198 30.0075 129.197 30.0046C129.196 30.0023 129.191 29.9902 129.191 29.961H126.191ZM128.921 33.0892C129.908 33.2593 130.765 33.375 131.717 33.375V30.375C131.019 30.375 130.358 30.2927 129.431 30.1328L128.921 33.0892ZM165.869 18.939L167.336 19.2542L167.672 17.6889L166.088 17.4551L165.869 18.939ZM165.11 22.47L164.918 23.9576L166.287 24.1346L166.577 22.7852L165.11 22.47ZM156.431 21.348L154.944 21.1506L154.746 22.6426L156.239 22.8356L156.431 21.348ZM156.926 17.619L157.145 16.1351L155.639 15.9128L155.439 17.4216L156.926 17.619ZM162.206 36.297L161.411 37.569L162.375 38.1715L163.216 37.4063L162.206 36.297ZM158.774 34.152L157.674 33.1319L156.44 34.4623L157.979 35.424L158.774 34.152ZM155.375 27.321L153.894 27.559L154.141 29.0975L155.669 28.7919L155.375 27.321ZM154.781 23.625L154.503 22.151L153.068 22.4217L153.3 23.863L154.781 23.625ZM164.403 18.6238L163.644 22.1548L166.577 22.7852L167.336 19.2542L164.403 18.6238ZM165.302 20.9824L156.623 19.8604L156.239 22.8356L164.918 23.9576L165.302 20.9824ZM157.918 21.5454L158.413 17.8164L155.439 17.4216L154.944 21.1506L157.918 21.5454ZM156.707 19.1029L165.65 20.4229L166.088 17.4551L157.145 16.1351L156.707 19.1029ZM163.001 35.025L159.569 32.88L157.979 35.424L161.411 37.569L163.001 35.025ZM159.874 35.1721C160.967 33.9936 161.87 32.8661 162.51 31.8285C163.125 30.8303 163.607 29.7386 163.607 28.674H160.607C160.607 28.8964 160.479 29.4052 159.955 30.255C159.456 31.0653 158.693 32.0334 157.674 33.1319L159.874 35.1721ZM163.607 28.674C163.607 27.5963 163.1 26.6608 162.142 26.0797C161.296 25.5663 160.205 25.392 159.038 25.392V28.392C159.983 28.392 160.427 28.5477 160.587 28.6448C160.646 28.6811 160.635 28.6895 160.615 28.6538C160.596 28.6189 160.607 28.6117 160.607 28.674H163.607ZM159.038 25.392C157.953 25.392 156.629 25.5404 155.081 25.8501L155.669 28.7919C157.091 28.5076 158.209 28.392 159.038 28.392V25.392ZM156.856 27.083L156.262 23.387L153.3 23.863L153.894 27.559L156.856 27.083ZM155.059 25.099C156.743 24.7812 158.198 24.63 159.434 24.63V21.63C157.964 21.63 156.317 21.8088 154.503 22.151L155.059 25.099ZM159.434 24.63C161.792 24.63 163.27 25.1316 164.122 25.7675C164.918 26.3615 165.293 27.1621 165.293 28.179H168.293C168.293 26.2919 167.53 24.568 165.917 23.3635C164.359 22.2009 162.158 21.63 159.434 21.63V24.63ZM165.293 28.179C165.293 30.0137 163.991 32.6445 161.196 35.1877L163.216 37.4063C166.295 34.6035 168.293 31.2283 168.293 28.179H165.293Z" fill="#62300C" mask="url(#path-1-outside-1_187_2)"/>
<rect y="37" width="184" height="50" rx="5" fill="#62300C"/>
<path d="M41.292 65.588H24.24V60.268H41.292V65.588ZM61.4115 55.144H66.0875V58.336H46.7395V55.144H50.1275V51.448H54.4955V55.144H57.0155L56.9035 49.768H61.4115V50.972H65.4715V54.108H61.4115V55.144ZM66.0595 60.072L63.5395 60.296L63.2035 58.896L65.7795 58.644L66.0595 60.072ZM66.4795 60.576V63.824H62.8115C62.8955 64.356 62.9515 64.86 63.0355 65.308C63.5675 65.084 64.1275 64.832 64.7155 64.552L65.6675 67.688C64.9395 67.968 64.2675 68.22 63.6235 68.444C63.6795 68.696 63.7355 68.976 63.8195 69.256L65.4995 68.948L66.2275 72.224L61.1875 73.708C60.7675 72.168 60.4315 70.796 60.1235 69.536C59.8715 69.62 59.6195 69.676 59.3675 69.76L58.4435 67.24C58.8075 67.1 59.1715 66.96 59.5075 66.848C59.2555 65.784 59.0595 64.804 58.8915 63.824H50.2955C50.0995 67.072 49.7635 69.788 49.0915 72.616L45.7595 72.224C46.3195 68.444 46.5155 64.58 46.6555 60.576H58.3315L58.1635 59.316L62.1675 58.84C62.2515 59.456 62.3075 60.044 62.3915 60.576H66.4795ZM57.8275 65.252V67.548H55.8115V73.652L52.4235 73.4L52.5075 71.468L53.0675 71.496V67.548H51.1355V65.252H57.8275ZM50.4635 68.416L52.6755 68.752C52.4795 69.816 52.2275 70.88 51.9195 71.888L49.7915 71.496C50.0715 70.488 50.3235 69.48 50.4635 68.416ZM56.5115 68.808L58.4155 68.528C58.5275 69.508 58.7235 70.488 59.0035 71.468L56.9315 71.832C56.7075 70.824 56.5675 69.816 56.5115 68.808ZM79.3145 58C84.2705 58 86.7345 60.772 86.7345 64.3C86.7345 66.82 85.5025 69.676 83.0665 72.196L80.3505 70.488C82.0305 68.472 83.0665 66.316 83.0665 64.608C83.0665 63.18 82.3385 62.06 80.6585 61.584C80.5185 66.232 79.6225 70.264 75.2545 69.928C72.7065 69.732 71.2505 67.408 71.2505 64.888C71.2505 61.64 73.6585 58 79.3145 58ZM75.6465 66.764C76.9345 66.764 77.1585 64.552 77.2705 61.528C75.2265 62.032 74.4425 63.628 74.4425 64.944C74.4425 65.952 74.9185 66.764 75.6465 66.764ZM94.4591 65.232H93.3551L91.1231 65.304L90.9551 65.16V62.808L91.0991 62.664L93.3551 62.736H94.4591L96.7151 62.664L96.8591 62.784V65.184L96.7151 65.304L94.4591 65.232ZM94.4591 61.824H93.3551L91.1231 61.896L90.9551 61.752V59.4L91.0991 59.256L93.3551 59.328H94.4591L96.7151 59.256L96.8591 59.376V61.776L96.7151 61.896L94.4591 61.824ZM94.5551 54.84H93.4511L91.2191 54.912L91.0511 54.768V52.416L91.1951 52.272L93.4511 52.344H94.5551L96.8111 52.272L96.9551 52.392V54.792L96.8111 54.912L94.5551 54.84ZM94.9151 58.416H92.9471L90.1871 58.488L90.0191 58.344V55.824L90.1631 55.68L92.9471 55.752H94.9151L97.5311 55.68L97.6751 55.8V58.368L97.5311 58.488L94.9151 58.416ZM110.323 54.96V59.568L112.219 59.496L112.363 59.616V62.184L112.219 62.304L110.323 62.232V66.936L112.771 66.864L112.915 66.984V69.552L112.771 69.672L109.963 69.6H106.027L103.315 69.672L103.147 69.528V67.008L103.291 66.864L104.323 66.888V58.44L104.491 58.248H106.699L106.891 58.416V66.936H107.587V55.44C106.675 55.584 105.859 55.752 105.283 55.752H105.187C104.947 55.752 104.803 55.656 104.731 55.56L103.435 53.352C106.123 53.088 108.739 52.68 110.563 52.104L110.803 52.128C111.499 52.752 112.123 53.352 112.891 54.168L112.819 54.408C112.075 54.6 111.211 54.792 110.323 54.96ZM93.2351 70.344H94.4831V68.592H93.2351V70.344ZM97.0991 68.688V69.816L97.1711 72.048C97.8671 71.376 98.4911 70.656 99.0191 69.84C98.2511 68.616 97.7231 67.056 97.4111 65.088L97.5071 64.848L99.3311 63.96L99.5471 64.08C99.7391 65.256 99.9551 66.168 100.219 66.936C100.507 65.808 100.699 64.44 100.771 62.784H100.027C99.9071 63.072 99.7631 63.384 99.6191 63.696L96.9791 62.688C98.0351 60.576 99.0431 57.888 99.7631 55.488L97.6511 55.56L97.4831 55.416V52.872L97.6271 52.728L99.5471 52.8H100.099L101.899 52.68L102.931 53.904C103.051 54.048 103.171 54.168 103.171 54.384C103.171 54.504 103.147 54.648 103.075 54.84C102.427 56.664 101.851 58.32 101.155 60.096L102.187 60L103.339 61.08C103.507 61.248 103.603 61.416 103.603 61.704C103.603 61.992 103.579 62.688 103.531 63.144C103.315 65.616 103.051 67.512 102.235 69.6C103.939 70.872 107.299 70.92 110.827 70.92C111.571 70.92 112.411 70.92 113.347 70.896L112.051 73.704C112.003 73.824 111.859 73.92 111.691 73.92C106.219 73.896 103.243 73.464 101.419 72.288C101.275 72.192 101.131 72.096 101.011 72C100.531 72.72 99.9791 73.368 99.3551 73.992C99.2351 74.112 99.1151 74.184 98.9951 74.184C98.8751 74.184 98.7551 74.088 98.6111 73.968L97.1951 72.672L97.2191 73.776H94.4831V72.744H93.2351V74.064H90.5951L90.7151 69.744V68.688L90.6431 66.288L90.7871 66.12L93.3071 66.192H94.2671L97.0031 66.12L97.1711 66.288L97.0991 68.688ZM128.575 65.784V68.024H135.239V72H117.179V68.024H123.815V65.784H118.887V61.808H123.815V59.316H120.567L119.895 61.332L115.779 60.604C116.367 57.916 117.011 55.06 117.375 52.316L121.995 53.184C121.883 53.912 121.743 54.64 121.575 55.368H123.815V52.68H128.575V55.368H134.763V59.316H128.575V61.808H133.531V65.784H128.575ZM156.308 72H140.012L139.732 54.416H156.588L156.308 72ZM145.472 59.652V61.584H151.044V59.652H145.472ZM145.472 65.448V67.296H151.044V65.448H145.472Z" fill="white"/>
</svg>
