<svg width="130" height="130" viewBox="0 0 130 130" fill="none" xmlns="http://www.w3.org/2000/svg">
<circle opacity="0.5" cx="65" cy="65" r="65" fill="#DEB283"/>
<path d="M103.131 62.9603L92.3508 60.5228C91.4811 60.3275 90.7964 59.7208 90.5658 58.938C90.3338 58.1566 90.5888 57.3208 91.2335 56.7581L99.2229 49.7772C100.037 49.0657 100.211 47.9453 99.6454 47.0603C99.0782 46.1742 97.9178 45.7499 96.8276 46.0305L86.1392 48.79C85.2769 49.0113 84.3486 48.7938 83.7155 48.2221C83.0808 47.6489 82.8401 46.8118 83.0865 46.0329L86.1408 36.3817C86.4516 35.3985 85.9817 34.3492 85.0003 33.8383C84.0191 33.3258 82.7784 33.4838 81.992 34.2186L74.2632 41.4337C73.6401 42.0145 72.716 42.246 71.8494 42.0365C70.9841 41.8269 70.3122 41.2099 70.0946 40.4245L67.3955 30.6883C67.1203 29.6961 66.1333 29 65.0003 29C63.867 29 62.88 29.6961 62.605 30.6883L59.9075 40.4249C59.6896 41.2102 59.0178 41.8261 58.151 42.0369C57.2859 42.2464 56.3618 42.0149 55.7387 41.4341L48.0099 34.219C47.222 33.4841 45.9814 33.3262 45.0014 33.8387C44.0201 34.3497 43.5503 35.3989 43.8611 36.3822L46.9152 46.0333C47.1617 46.8123 46.9209 47.6493 46.2863 48.2225C45.6531 48.7943 44.7248 49.0116 43.8625 48.7904L33.1727 46.0309C32.084 45.7503 30.9236 46.1746 30.3577 47.0607C29.7905 47.9456 29.9638 49.066 30.7775 49.7776L38.7684 56.7585C39.4117 57.3212 39.6681 58.157 39.4361 58.9385C39.204 59.7213 38.5207 60.3279 37.651 60.5232L26.8694 62.9603C25.7706 63.2086 25 64.1 25 65.1235C25 66.1468 25.7706 67.0382 26.8694 67.2866L37.6509 69.724C38.5206 69.9194 39.2039 70.526 39.4359 71.3088C39.6679 72.0902 39.4115 72.9259 38.7682 73.4887L30.7774 80.4697C29.9636 81.1812 29.7904 82.3003 30.3575 83.1866C30.9235 84.0728 32.0838 84.4971 33.1726 84.2164L43.8623 81.4569C44.7248 81.2357 45.653 81.4531 46.2861 82.0249C46.9208 82.5981 47.1614 83.4351 46.915 84.2139L43.8609 93.8651C43.55 94.8483 44.02 95.8976 45.0012 96.4085C45.9811 96.9207 47.2217 96.763 48.0097 96.0282L55.7385 88.8131C56.3617 88.2323 57.2857 88.0006 58.1509 88.2102C59.0176 88.4211 59.6895 89.0371 59.9073 89.8222L62.6048 99.5589C62.8798 100.551 63.867 101.247 65.0002 101.247C66.1333 101.247 67.1203 100.551 67.3953 99.5589L70.0943 89.8222C70.3119 89.0371 70.984 88.4199 71.8491 88.2102C72.7157 88.0006 73.6398 88.2323 74.2629 88.8131L81.9917 96.0282C82.7781 96.7631 84.0187 96.9209 85 96.4085C85.9814 95.8976 86.4513 94.8483 86.1405 93.8651L83.0862 84.2139C82.8398 83.4351 83.0803 82.5981 83.7151 82.0249C84.3483 81.4531 85.2766 81.2358 86.1389 81.4569L96.8273 84.2164C97.9174 84.4971 99.0779 84.0728 99.6451 83.1866C100.211 82.3003 100.036 81.1813 99.2226 80.4697L91.2332 73.4887C90.5885 72.926 90.3335 72.0904 90.5655 71.3088C90.7961 70.526 91.4808 69.9194 92.3505 69.724L103.131 67.2866C104.229 67.0383 105 66.1469 105 65.1235C105 64.1002 104.23 63.2088 103.131 62.9603ZM57.1782 77.8446C54.3346 77.8446 52.0297 75.763 52.0297 73.1951C52.0297 70.6244 54.3346 68.5428 57.1782 68.5428C60.0248 68.5428 62.3284 70.6244 62.3284 73.1951C62.3284 75.763 60.025 77.8446 57.1782 77.8446ZM60.1695 62.0729C57.2987 62.0729 54.9721 59.9718 54.9721 57.3792C54.9721 54.7867 57.2987 52.6856 60.1695 52.6856C63.0403 52.6856 65.3669 54.7867 65.3669 57.3792C65.3669 59.9718 63.0403 62.0729 60.1695 62.0729ZM73.746 80.1539C71.7146 80.1539 70.0685 78.6661 70.0685 76.8317C70.0685 74.9972 71.7146 73.5106 73.746 73.5106C75.7773 73.5106 77.4248 74.9972 77.4248 76.8317C77.4249 78.6661 75.7774 80.1539 73.746 80.1539ZM74.7874 67.2141C72.958 67.2141 71.4768 65.8764 71.4768 64.2257C71.4768 62.5737 72.958 61.2358 74.7874 61.2358C76.6168 61.2358 78.0982 62.5735 78.0982 64.2257C78.0982 65.8764 76.617 67.2141 74.7874 67.2141Z" fill="#62300C"/>
<line x1="111.556" y1="25.515" x2="25.5559" y2="112.515" stroke="#DD8F69" stroke-opacity="0.7" stroke-width="10"/>
</svg>
