<svg width="130" height="130" viewBox="0 0 130 130" fill="none" xmlns="http://www.w3.org/2000/svg">
<circle opacity="0.5" cx="65" cy="65" r="65" fill="#DEB283"/>
<path d="M61.4689 43.9038C58.2953 39.9357 53.648 36.1298 46.0933 36.004C35.5641 35.8099 26 42.7294 26 58.0036C26 73.0606 40.3364 83.744 49.1787 89.1848C53.7923 92.0377 59.3378 94.281 61.4256 95.0833L66.9358 73.2894L55.3592 61.7139L61.4689 43.9038ZM43.4875 73.0345C42.4019 73.7325 40.8992 73.5052 40.1248 72.5276C38.157 70.0396 36.6963 67.2185 36.1125 64.0976C35.803 62.4278 35.6394 60.8768 35.6394 59.4315C35.6394 57.979 35.8045 56.6293 36.1622 55.3853C36.4991 54.2239 37.8172 53.5272 39.1033 53.8301C40.3911 54.1343 41.1623 55.3247 40.8255 56.486C40.5913 57.2925 40.4583 58.2759 40.4583 59.4315C40.4583 60.5814 40.5881 61.8964 40.8655 63.3735C41.3081 65.7384 42.4194 67.9353 44.0486 69.999C44.8217 70.9781 44.57 72.3364 43.4875 73.0345ZM46.7509 47.0074C45.9925 47.4216 45.4359 47.8589 45.0239 48.318C44.1834 49.2492 42.6664 49.3896 41.632 48.6309C40.6027 47.872 40.447 46.5021 41.2873 45.5694C42.0939 44.6745 43.0994 43.9155 44.2556 43.2842C45.3958 42.6614 46.8775 42.9915 47.5637 44.0199C48.2536 45.0479 47.8895 46.3875 46.7509 47.0074Z" fill="#62300C"/>
<path d="M85.905 36.004C77.8821 36.1372 73.1354 40.4224 69.9554 44.6439C69.8127 44.8379 69.6491 45.0132 69.4758 45.1695L64.179 60.6116L75.5919 72.0234L69.6794 95.4163C69.6905 95.4133 69.7019 95.4105 69.7115 95.4076C69.7115 95.4076 77.0127 92.7748 82.8211 89.1846C91.6636 83.744 106 73.0606 106 58.0036C106 42.7294 96.4344 35.8099 85.905 36.004Z" fill="#62300C"/>
</svg>
