<svg width="130" height="130" viewBox="0 0 130 130" fill="none" xmlns="http://www.w3.org/2000/svg">
<circle opacity="0.5" cx="65" cy="65" r="65" fill="#DEB283"/>
<path d="M39.446 56.4361C40.8592 57.5038 41.0802 58.3879 41.1016 59.6371C41.1417 61.9167 41.1769 65.4055 41.0563 66.9357C40.8592 69.4272 35.7997 79.0268 35.7997 79.0268C34.2835 82.51 40.356 84.4562 42.4885 81.2925L50.4399 69.9792C51.2344 69.069 52.3389 68.0034 53.7308 68.5374C53.7308 68.5374 56.7833 70.0756 62.5458 70.0756C68.307 70.0756 70.8686 68.5374 70.8686 68.5374C72.4389 67.8698 73.6437 69.2027 74.4108 70.2999L82.637 82.0622C85.0017 84.7328 90.3223 81.5294 88.9428 79.3928C88.9428 79.3928 84.6076 70.4948 83.8194 66.2238C83.0311 61.9517 87.5636 52.5198 89.5353 50.3855C91.5059 48.2488 96.4311 53.7667 98.2047 54.4785C99.9793 55.1893 103.527 52.6989 102.934 51.0974C102.344 49.4957 98.4017 37.9272 98.4017 37.9272C98.4017 37.9272 102.169 32.288 100.175 32.0545C95.6429 31.5196 93.6723 35.0798 93.6723 35.0798C93.6723 35.0798 82.3861 33.7853 75.6986 47.2412C75.3723 47.8975 74.1636 49.3166 71.2064 49.3166C62.3275 49.3166 44.0261 49.3166 43.027 49.3166C38.8889 49.3166 34.7506 43.266 33.5683 43.7999C32.4824 44.2894 33.7953 52.1674 39.446 56.4361Z" fill="#62300C"/>
<path d="M101.909 78.9201L100.843 77.7911C100.195 77.102 99.0556 77.0067 98.2787 77.5747C98.2787 77.5747 98.2648 77.6098 97.5394 78.1154C87.8834 84.8382 75.8041 88.8327 62.6663 88.8349C49.7721 88.8327 37.8971 84.9856 28.3341 78.4871C27.4191 77.8659 27.0513 77.5611 27.0513 77.5611C26.2732 76.999 25.141 77.0976 24.4958 77.7832L23.4391 78.9054C23.1152 79.2489 22.9608 79.6955 23.0085 80.1432C23.0561 80.5921 23.3022 81.0035 23.6913 81.2846C23.6913 81.2846 24.1694 81.6745 25.1886 82.3649C35.6264 89.4413 48.6136 93.641 62.6663 93.6397C77.2586 93.6409 90.7025 89.1125 101.336 81.5351C101.942 81.1044 101.671 81.2869 101.671 81.2869C102.055 81.0047 102.294 80.5943 102.339 80.1489C102.383 79.7045 102.229 79.2613 101.909 78.9201Z" fill="#62300C"/>
</svg>
