<svg width="130" height="130" viewBox="0 0 130 130" fill="none" xmlns="http://www.w3.org/2000/svg">
<circle opacity="0.5" cx="65" cy="65" r="65" fill="#DEB283"/>
<path d="M70.8869 33.9904L82.0153 36.6577C82.3057 36.711 82.5413 36.9252 82.6083 37.1888L85.5419 47.2387C85.6211 47.534 85.9084 47.7411 86.2427 47.7411C86.5802 47.7411 86.8647 47.5338 86.9406 47.2387L89.8789 37.1888C89.9412 36.9252 90.1784 36.711 90.4687 36.6577L101.599 33.9904C101.924 33.9354 102.155 33.6733 102.155 33.3713C102.155 33.0665 101.924 32.8099 101.599 32.7507L90.4685 30.085C90.1783 30.0288 89.941 29.8175 89.8787 29.5539L86.9404 19.5038C86.8645 19.2115 86.58 19 86.2425 19C85.9083 19 85.6209 19.2115 85.5418 19.5038L82.6081 29.5538C82.5411 29.8173 82.3055 30.0286 82.0151 30.0849L70.8868 32.7507C70.5584 32.8097 70.3303 33.0665 70.3303 33.3713C70.3305 33.6733 70.5586 33.9354 70.8869 33.9904Z" fill="#62300C"/>
<path d="M102.289 71.7973C102.763 70.7649 103 69.7272 103 68.6619C103 67.5967 102.763 66.5589 102.289 65.5267C101.817 64.4958 101.109 63.473 100.164 62.4751C98.2787 60.4778 95.4439 58.5916 91.8671 56.9964C84.7168 53.7952 74.6388 51.7582 63.4951 51.7637C56.182 51.7637 49.3279 52.6339 43.459 54.1425C37.5884 55.6485 32.7061 57.8024 29.3375 60.2857C27.0863 61.9372 25.5237 63.7242 24.6999 65.5269C24.2271 66.559 23.9899 67.5969 23.9899 68.6621C23.9899 69.7274 24.2269 70.7651 24.6999 71.7974C25.1726 72.827 25.8808 73.8497 26.8249 74.8476C28.7128 76.8478 31.5463 78.7311 35.1214 80.3277C42.2718 83.5303 52.3515 85.5661 63.4951 85.5621C70.8096 85.5621 77.662 84.6904 83.5312 83.1805C89.4016 81.6745 94.2855 79.522 97.6525 77.04C99.9021 75.3855 101.468 73.5984 102.289 71.7973ZM84.9491 69.6461L78.2258 71.2563C78.048 71.288 77.9052 71.4183 77.8656 71.5803L76.0947 77.6478C76.0475 77.8263 75.876 77.9526 75.6722 77.9526C75.4699 77.9526 75.2968 77.8263 75.2497 77.6478L73.4774 71.5803C73.4362 71.4183 73.295 71.288 73.117 71.2563L66.3967 69.6461C66.1976 69.6103 66.0578 69.4525 66.0578 69.2713C66.0578 69.0875 66.1976 68.9308 66.3967 68.8952L73.117 67.2861C73.295 67.2478 73.4362 67.1256 73.4774 66.965L75.2497 60.8935C75.2968 60.715 75.4701 60.5887 75.6722 60.5887C75.876 60.5887 76.0477 60.715 76.0947 60.8935L77.8656 66.965C77.9052 67.1257 78.048 67.2478 78.2258 67.2861L84.9491 68.8952C85.1438 68.9308 85.285 69.0873 85.285 69.2713C85.2852 69.4525 85.1438 69.6103 84.9491 69.6461Z" fill="#62300C"/>
<path d="M31.7769 47.3485L33.8716 54.5294C33.9294 54.7421 34.1348 54.8891 34.3733 54.8891C34.6134 54.8891 34.8173 54.7423 34.8733 54.5294L36.9695 47.3485C37.0135 47.1592 37.1852 47.0069 37.3934 46.9669L45.3464 45.0644C45.579 45.0206 45.7447 44.8311 45.7447 44.6169C45.7447 44.4026 45.579 44.2188 45.3464 44.1748L37.3934 42.2695C37.185 42.2283 37.0135 42.08 36.9695 41.8905L34.8733 34.7056C34.8171 34.4971 34.6134 34.3486 34.3733 34.3486C34.1346 34.3486 33.9293 34.4969 33.8716 34.7056L31.7769 41.8905C31.7268 42.08 31.5611 42.2283 31.3513 42.2695L23.3998 44.1748C23.1626 44.2188 23 44.4026 23 44.6169C23 44.8309 23.1626 45.0204 23.3998 45.0644L31.3513 46.9669C31.5611 47.0069 31.7269 47.1592 31.7769 47.3485Z" fill="#62300C"/>
<path d="M23.9899 78.429V84.8973C23.9899 85.9639 24.2269 87.0032 24.6999 88.0356C25.1726 89.0652 25.8808 90.0877 26.8249 91.0872C27.2231 91.5058 27.6701 91.9203 28.1489 92.3281V81.9761C27.8357 81.7648 27.5317 81.552 27.2353 81.3365C26.0024 80.4277 24.9126 79.4571 23.9899 78.429Z" fill="#62300C"/>
<path d="M31.4745 94.6877C32.5842 95.3453 33.8002 95.9754 35.1211 96.5655C35.6879 96.821 36.2795 97.0624 36.8798 97.2986V86.2918C34.9387 85.5835 33.1299 84.797 31.4745 83.939V94.6877Z" fill="#62300C"/>
<path d="M40.2087 87.3887V98.4187H40.0125C42.3824 99.1833 44.9528 99.8383 47.6918 100.361V89.1543C45.9165 88.8317 44.1956 88.461 42.5481 88.0382C41.7516 87.832 40.9703 87.6165 40.2087 87.3887Z" fill="#62300C"/>
<path d="M51.0195 100.904C54.4429 101.403 58.0635 101.713 61.8303 101.782V90.5078C58.0834 90.4418 54.4624 90.1605 51.0195 89.6799V100.904Z" fill="#62300C"/>
<path d="M65.1593 101.774C69.0809 101.705 72.8417 101.37 76.3865 100.836V89.6294C72.822 90.14 69.0567 90.4462 65.1593 90.5148V101.774Z" fill="#62300C"/>
<path d="M79.7125 100.274C81.0228 100.015 82.3028 99.734 83.5309 99.4182C84.8032 99.0916 86.0253 98.7346 87.1987 98.3503V87.2612C84.8517 87.9765 82.3466 88.5887 79.7123 89.0802V100.274H79.7125Z" fill="#62300C"/>
<path d="M90.5248 86.1356V97.1369C92.545 96.3131 94.3569 95.4072 95.9317 94.4324V83.7197C95.1063 84.159 94.2444 84.5831 93.3432 84.988C92.4417 85.3902 91.4975 85.7718 90.5248 86.1356Z" fill="#62300C"/>
<path d="M99.0598 81.8198H99.2575V91.97C100.66 90.6974 101.68 89.37 102.288 88.0357C102.763 87.0034 103 85.9643 103 84.8975V78.4319C102.898 78.5444 102.798 78.6571 102.693 78.7682C101.664 79.8541 100.44 80.8685 99.0598 81.8198Z" fill="#62300C"/>
</svg>
