<svg width="307" height="172" viewBox="0 0 307 172" fill="none" xmlns="http://www.w3.org/2000/svg">
<path d="M172.514 16.2045C141.594 12.0301 117.677 12.3185 99.1562 46.1311C90.1961 62.4891 89.373 81.3682 94.7915 101.241C100.261 121.301 113.476 121.705 132.225 128.718C150.975 135.732 180.805 117.428 207.147 121.589C233.256 125.713 233.472 134.755 259.78 136.433C271.327 137.169 282.229 137.79 290.604 130.254C303.214 118.908 305.421 112.858 304.826 95.5485C304.56 87.8047 296.384 74.1022 284.428 66.5219C267.811 55.9856 261.225 57.8846 245.662 55.4758C221.847 51.7896 196.352 19.4227 172.514 16.2045Z" fill="#DD8F69"/>
<path d="M11.4445 14.7023C0.408932 28.1688 18.4913 47.3308 16.6314 65.5806C14.4706 86.7818 -3.02649 97.3005 0.457251 118.216C7.27091 159.123 51.7213 119.008 84.459 123.524C117.176 128.037 170.104 163.524 173.008 118.216C173.837 105.282 165.542 98.2665 167.875 85.6321C172.25 61.9333 228.909 83.5623 232.5 62.5C235.03 47.6607 233.737 43.3576 225 33C203.1 7.03905 149.669 36.6193 120.097 30.4904C95.0165 25.2921 80.4442 11.5888 58.5 5C40.1632 -0.505621 28 -5.49998 11.4445 14.7023Z" fill="#DEB283"/>
<path d="M31.41 40.8457H40.026V44.1577H31.41V40.8457ZM26.514 42.1657L29.586 44.2777C28.962 45.3577 28.17 46.6057 27.306 47.8537L28.722 47.8057V57.4057L25.482 57.4537L25.338 50.7337L24.594 51.7657L21.762 49.7977C22.866 48.2857 25.482 44.1817 26.514 42.1657ZM40.386 51.0217L41.25 57.9337L38.034 58.3897L37.866 57.2617L31.386 58.2217L30.786 55.1497L32.634 54.8857L32.874 49.4617H30.522V46.0777H41.082V49.4617H36.474L35.802 54.4057L37.386 54.1657L37.002 51.5737L40.386 51.0217ZM65.7591 49.8457L63.1431 50.0617L63.0471 49.2697L56.3991 49.9657L56.0871 47.1577L57.7911 47.0377L58.1271 45.1177H56.1351V41.9017H59.5671V40.3417H62.7831V41.9017H66.1671V45.1177H60.5511L60.1671 46.8457L62.7111 46.6537L62.6151 45.9337L65.3991 45.6937L65.7591 49.8457ZM52.7751 51.3097L52.6311 49.8217L55.0071 49.5337L55.4151 53.9017L53.0871 54.2137L53.0391 53.7097H52.3911V58.0777H49.8711V53.7097H47.6151V50.8777L49.0791 48.7897L46.7511 47.1337L49.7751 41.1097L52.1511 42.3337L49.5831 46.2937L50.3751 46.9417L52.5591 43.8457L55.1271 45.3097L50.6391 51.3097H52.7751ZM59.1831 58.2697L56.8311 58.0057C57.3351 55.5577 57.6711 52.9897 57.7671 50.3497L60.5031 50.6617C60.2631 53.3257 59.8071 55.8457 59.1831 58.2697ZM64.4391 55.8217V54.1417L66.4311 54.1657L66.1671 57.9577L63.6711 58.3177C63.5511 58.3417 63.4311 58.3417 63.3351 58.3417C61.5831 58.3417 61.2231 56.4697 61.2231 55.2457V50.4697H63.5751L63.5271 55.8457L64.4391 55.8217ZM48.8151 57.6457L46.9431 57.4537C47.0871 56.5177 47.1591 55.6057 47.2071 54.6697L49.2951 54.8857C49.1991 55.8217 49.0551 56.7577 48.8151 57.6457ZM52.8951 54.9097L55.0071 54.6937C55.1031 55.6297 55.1991 56.5417 55.3431 57.4297L53.3031 57.6697C53.1111 56.8297 52.9911 55.8937 52.8951 54.9097ZM83.0504 46.4857L82.9544 49.2217L76.6664 49.2457L76.4744 50.1577C77.6744 50.0617 78.5384 50.3977 79.1144 51.0217C79.9784 50.8057 80.9624 50.6377 82.0664 50.5177L82.1864 53.2057C81.3704 53.2777 80.6504 53.3497 80.0264 53.4697V53.8537C80.0264 54.2377 80.0024 54.6457 79.9304 55.0537L77.3864 54.9817C77.4584 54.6937 77.5064 54.4297 77.5064 54.1657V54.1177C76.6904 54.4777 76.3304 54.8377 76.3304 55.1497C76.3304 55.4617 76.7144 55.6777 77.3144 55.7497C77.5784 55.7737 77.8424 55.7977 78.1064 55.7977C79.2344 55.7977 80.4104 55.5817 81.5624 55.3417L81.8984 57.8137C80.4824 58.1497 79.6184 58.3177 78.2744 58.3177C78.0344 58.3177 77.7704 58.2937 77.5064 58.2937C75.1304 58.1977 73.4024 56.8057 73.4024 55.2217C73.4024 54.3097 73.9544 53.3257 75.2984 52.4857C75.0824 52.4617 74.8424 52.4617 74.6024 52.4617C74.2184 52.4617 73.7864 52.4857 73.3064 52.5337L73.9784 49.2457H71.9624V46.4377H74.5544L74.8904 44.7577L77.5544 45.0937L77.2664 46.4617L83.0504 46.4857ZM88.573 43.2697H104.461V46.5577H102.925L102.133 58.5817L97.429 58.2937L97.453 55.4857L99.325 55.5817L99.469 46.5577H88.573V43.2697ZM96.901 54.4297H90.901V48.7417H96.901V54.4297ZM94.405 50.8777H93.301V52.1257H94.405V50.8777ZM116.323 42.3337C114.307 42.3337 112.267 42.3097 110.251 42.2617L109.987 39.2377C115.795 39.2377 121.531 39.1177 127.147 38.8777V42.0697C123.523 42.2617 119.923 42.3337 116.323 42.3337ZM125.731 44.0377H128.395V48.8137L125.251 48.7897C125.251 49.0057 125.251 49.1737 125.227 49.3897L123.115 49.3177C123.115 48.7897 123.115 48.2137 123.067 47.6377L124.699 47.6617V46.9417L113.155 46.9657V47.8777L114.475 47.9497C114.403 49.2457 114.283 49.7257 113.803 50.9017L111.427 50.5897C111.667 49.9177 111.787 49.5337 111.859 49.1017H109.507V44.0377H111.739L111.499 43.0777L115.387 42.8377L115.531 44.0377H117.139L116.899 42.8377L120.475 42.7177L120.523 44.0377H122.323L122.395 42.7657L126.163 43.1017L125.731 44.0377ZM119.323 47.8057L121.747 47.7577C121.747 48.4297 121.819 48.8377 121.939 49.3177L119.611 49.3897C119.419 48.9337 119.323 48.4297 119.323 47.8057ZM115.315 47.9497H118.123C118.123 49.6537 118.387 50.1817 120.307 50.1817C120.547 50.1817 120.811 50.1817 121.123 50.1577L121.147 49.6057L123.787 49.8217L123.523 52.1257C122.347 52.2457 121.291 52.3177 120.379 52.3177C116.851 52.3177 115.315 51.2857 115.315 47.9497ZM113.587 51.9097L116.707 52.3657C116.683 52.5097 116.635 52.6537 116.611 52.7977H124.651V55.3177C124.051 55.8217 123.163 56.3737 122.155 56.9257L124.051 57.4537L122.347 59.3737C121.555 59.1097 120.499 58.7497 119.443 58.3417L117.043 59.4697L115.243 58.6057C115.891 58.2457 116.587 57.8377 117.259 57.4297C116.779 57.2137 116.347 56.9977 115.987 56.8057L117.019 55.2697C117.667 55.5097 118.483 55.7977 119.323 56.0617C119.995 55.6057 120.571 55.1257 121.027 54.7177H116.035C115.819 55.3177 115.555 55.8937 115.267 56.4697L112.483 56.0617C113.035 54.6697 113.275 53.3497 113.587 51.9097ZM143.138 45.8857L142.682 48.3577L133.922 47.3737L134.282 44.7577L143.138 45.8857ZM135.002 58.1257L135.314 55.7497C135.77 55.7977 136.178 55.8217 136.562 55.8217C138.53 55.8217 139.634 55.2217 139.634 54.5977C139.634 54.0217 138.554 53.4217 136.25 53.4217C135.722 53.4217 135.146 53.4457 134.498 53.5177L134.618 48.8857L137.378 49.0057L137.282 50.9257C140.57 50.9257 142.298 52.7497 142.298 54.5737C142.298 56.4217 140.522 58.2457 136.802 58.2457C136.25 58.2457 135.65 58.2217 135.002 58.1257ZM154.369 58.3417C151.105 58.3417 148.921 55.7977 149.161 52.7257L149.713 45.5497L152.905 45.8377L152.305 53.2777C152.185 54.7417 153.097 55.5097 154.129 55.5097C155.185 55.5097 156.361 54.7657 156.841 53.2777L159.721 54.4537C158.617 56.6857 156.721 58.3417 154.369 58.3417ZM172.708 56.6137L170.116 58.4617L164.764 51.6217L169.804 44.7097L172.972 46.7977L168.916 51.7657L172.708 56.6137ZM185.301 49.6537L181.941 49.1737C182.469 47.2777 182.877 45.9337 183.117 44.1817H178.821V41.4457H185.565V39.9817H188.733V41.4457H196.149V44.1817H191.853L191.205 49.8697L187.317 49.6537L187.341 46.8697L188.373 46.9417L188.349 44.1817H186.765C186.501 46.1737 185.949 47.6377 185.301 49.6537ZM179.229 44.9257L182.109 45.6217C181.845 46.7257 181.389 47.8297 180.789 48.9817L178.245 48.4777C178.701 47.3257 179.013 46.1257 179.229 44.9257ZM192.501 45.4057L195.381 44.9737C195.909 46.2217 196.293 47.4937 196.485 48.8377L193.437 49.7017C193.269 48.2617 192.957 46.8457 192.501 45.4057ZM181.845 49.8457L184.965 50.3737C184.941 50.5417 184.893 50.7097 184.869 50.8777H192.909V53.8537C192.309 54.4297 191.421 55.1017 190.413 55.7497C191.109 55.9897 191.781 56.2057 192.309 56.3737L190.605 58.6297C189.813 58.3177 188.757 57.8857 187.701 57.4057C186.837 57.9097 186.021 58.3657 185.301 58.7497L183.501 57.7417C184.149 57.3097 184.845 56.8297 185.517 56.3497C185.037 56.1097 184.605 55.8457 184.245 55.6057L185.277 53.8057C185.925 54.0937 186.741 54.4297 187.605 54.7417C188.253 54.1897 188.853 53.6617 189.285 53.1577H184.293C184.077 53.8537 183.813 54.5497 183.525 55.2217L180.549 54.7657C181.101 53.1337 181.533 51.4777 181.845 49.8457ZM204.403 44.7097L210.283 45.4777L209.851 47.7817L204.163 47.3017L204.403 44.7097ZM210.427 54.6217L212.803 55.7737C211.699 57.4777 210.427 58.2697 209.035 58.2697C208.003 58.2697 206.923 57.8377 205.843 56.9977L204.211 58.4137L202.219 56.7097L208.219 51.2137L202.123 51.2857L202.003 48.6937H211.987L211.915 51.7177L207.883 55.2217C208.243 55.5097 208.555 55.6537 208.867 55.6537C209.347 55.6537 209.827 55.3177 210.427 54.6217ZM223.787 58.3417C221.891 58.3417 220.427 57.4057 220.427 55.7257C220.427 54.1897 221.963 53.2537 223.451 53.2537C224.771 53.2537 226.067 53.9977 226.163 55.7257C226.907 55.5817 227.315 55.0297 227.315 54.4537C227.315 53.5897 226.451 52.6297 224.531 52.6297C223.307 52.6297 221.627 53.0377 219.443 54.1417L218.555 52.1017L224.771 48.4777L219.419 48.5257L219.371 45.9577L229.235 45.9097L229.163 48.9577L225.755 50.6617C225.923 50.6377 226.067 50.6377 226.211 50.6377C228.707 50.6377 230.171 52.2937 230.171 54.0937C230.171 56.1337 228.251 58.3417 223.787 58.3417ZM223.355 56.2777C223.619 56.2777 223.859 56.0377 223.859 55.7497C223.859 55.4857 223.619 55.2457 223.355 55.2457C223.067 55.2457 222.827 55.4857 222.827 55.7497C222.827 56.0377 223.067 56.2777 223.355 56.2777ZM31.074 110.606L28.098 108.494C27.618 110.638 26.146 111.278 22.754 111.278C22.402 111.278 22.306 111.214 22.178 110.894L20.45 106.894C21.89 106.894 22.658 106.83 23.17 106.766C23.81 106.702 24.002 106.51 24.002 105.742V99.9497C23.266 100.206 22.53 100.43 21.826 100.622L21.538 100.462L20.322 96.7177L20.482 96.4297C21.666 96.1737 22.85 95.8857 24.002 95.5977V90.6377L20.802 90.7337L20.578 90.5417V87.0537L20.77 86.8617L24.002 86.9577V81.0057L24.226 80.7497H27.874L28.13 80.9737V86.9257L30.85 86.8617L31.042 87.0217V90.5737L30.85 90.7337L28.13 90.6697V94.4137C29.154 94.0937 30.146 93.7737 31.01 93.4537L31.074 96.6537C31.074 97.2297 30.946 97.4537 30.434 97.6457C29.794 97.9017 28.994 98.1897 28.13 98.5097V99.4697L28.29 106.446C28.29 107.118 28.258 107.726 28.162 108.238C31.074 104.59 31.97 100.366 31.97 92.9417V87.9817L31.874 83.4057L32.098 83.1817L35.362 83.7897C39.522 83.3097 43.266 82.3817 46.914 81.2617H47.234C48.322 82.1257 49.41 83.1497 50.498 84.4297L50.466 84.7497C49.57 84.9737 48.706 85.1977 47.842 85.3897C47.97 94.9897 48.578 101.23 51.65 107.662L48.546 110.51C48.322 110.702 48.13 110.798 47.97 110.798C47.778 110.798 47.65 110.67 47.554 110.478C44.674 104.366 43.938 96.8777 43.81 86.2857C43.234 86.3817 42.69 86.4777 42.114 86.6057V99.5337L42.274 109.838H37.89L38.05 99.5337V87.2137C37.41 87.2777 36.738 87.3737 36.066 87.4377V92.6537C36.066 101.07 35.234 105.998 32.034 110.478C31.874 110.702 31.778 110.83 31.586 110.83C31.458 110.83 31.298 110.766 31.074 110.606ZM57.762 81.5577H84.122L83.602 108.678L77.322 108.158L77.642 103.758L78.882 103.878L78.962 86.9177H63.642C63.682 88.2377 63.682 89.5177 63.682 90.8377C63.682 96.7977 63.322 102.718 62.642 108.718L57.282 108.358C57.682 101.918 57.802 95.4777 57.802 88.7577C57.802 86.3977 57.802 83.9977 57.762 81.5577ZM65.762 97.2777V93.6377H69.082V92.4777H66.322V88.8377H69.082V87.6777H72.562V88.8377H75.442V92.4777H72.562V93.6377H76.002V97.2777H65.762ZM76.322 106.078H65.722V98.4777H76.322V106.078ZM72.682 101.758H69.562V103.078H72.682V101.758ZM106.324 97.6777L113.284 97.3577L113.524 102.118L106.444 102.438L106.564 108.238L101.444 108.518L101.124 102.678L94.4042 102.998L94.1642 98.2377L100.844 97.9177L100.604 93.7177L92.7642 94.0377L92.5242 89.2777L100.324 88.9577L100.164 86.2777L106.084 85.9977L106.124 88.7177L113.804 88.3977L114.044 93.1577L106.244 93.4777L106.324 97.6777ZM134.295 99.2377L130.135 99.4377L129.535 90.1977L133.855 90.0377L134.295 99.2377ZM128.975 99.5977L124.855 99.8377L124.055 90.4377L128.415 90.2777L128.975 99.5977ZM137.055 108.598L133.215 107.638C134.895 102.158 135.895 97.7577 136.815 91.3177L141.815 92.1977C140.495 98.5977 139.095 103.718 137.055 108.598ZM156.918 86.2377V94.7577C160.238 95.1977 163.358 95.5177 166.238 95.7177L165.998 100.398C165.158 100.438 164.318 100.438 163.478 100.438C161.278 100.438 159.118 100.358 156.918 100.158V108.278H151.798V86.2377H156.918ZM176.22 108.558V86.2377H181.34V101.998C184.42 101.238 186.18 100.678 189.94 99.0377L192.1 103.318C186.94 106.198 182.1 107.838 176.22 108.558ZM212.207 93.9577L202.127 93.9977L202.087 89.2377L212.167 89.1977L212.207 93.9577ZM209.687 108.918L206.087 104.198C211.887 100.358 215.687 96.9177 220.527 90.7977L224.887 94.1177C220.287 100.278 215.767 104.638 209.687 108.918ZM242.348 87.7177L254.388 87.6777C253.708 96.8777 252.788 103.318 251.788 108.678L246.588 107.958C246.908 106.078 247.188 103.958 247.428 101.798L242.428 101.278L243.068 96.5177L247.868 96.9577C247.988 95.4377 248.108 93.9177 248.188 92.4377L241.868 92.4777C241.388 95.9977 240.748 99.5977 240.028 102.798L234.868 102.078C235.548 97.1577 236.108 91.2377 236.388 85.9177L242.468 86.2777L242.348 87.7177ZM287.327 106.518L278.487 108.478C277.207 103.438 276.047 94.9577 275.567 87.6777L281.207 87.1177C281.567 94.5177 281.967 99.3177 282.407 102.758L286.367 101.838L287.327 106.518ZM269.487 108.638L264.407 107.718C265.887 101.198 266.807 94.3177 267.247 87.1577L273.127 87.5977C272.727 94.8777 271.207 103.158 269.487 108.638Z" fill="white"/>
</svg>
