<svg width="40" height="40" viewBox="0 0 40 40" fill="none" xmlns="http://www.w3.org/2000/svg">
<path d="M30.9825 0H9.0175C4.03727 0 0 4.03727 0 9.0175V30.9825C0 35.9627 4.03727 40 9.0175 40H30.9825C35.9627 40 40 35.9627 40 30.9825V9.0175C40 4.03727 35.9627 0 30.9825 0Z" fill="#DEB283"/>
<path d="M33.3325 18.115C33.3325 12.1475 27.35 7.29248 19.9963 7.29248C12.6425 7.29248 6.66 12.1475 6.66 18.115C6.66 23.465 11.405 27.945 17.8138 28.7925C18.2475 28.8862 18.8388 29.0787 18.9888 29.45C19.1238 29.7875 19.0763 30.315 19.0325 30.6562C19.0325 30.6562 18.8763 31.5975 18.8425 31.7975C18.7838 32.135 18.575 33.1162 19.9975 32.5162C21.4213 31.9162 27.6775 27.9937 30.475 24.7737C32.4075 22.6537 33.3338 20.5037 33.3338 18.115H33.3325Z" fill="#FFF9EC"/>
<path d="M28.895 21.5613H25.1488C25.0075 21.5613 24.8938 21.4475 24.8938 21.3063V21.3025V15.4925V15.4863C24.8938 15.345 25.0075 15.2313 25.1488 15.2313H28.895C29.035 15.2313 29.15 15.3463 29.15 15.4863V16.4325C29.15 16.5738 29.0363 16.6875 28.895 16.6875H26.3488V17.67H28.895C29.035 17.67 29.15 17.785 29.15 17.925V18.8713C29.15 19.0125 29.0363 19.1263 28.895 19.1263H26.3488V20.1088H28.895C29.035 20.1088 29.15 20.2238 29.15 20.3638V21.31C29.15 21.4513 29.0363 21.565 28.895 21.565V21.5613Z" fill="#DEB283"/>
<path d="M15.0362 21.5612C15.1762 21.5612 15.2912 21.4475 15.2912 21.3062V20.36C15.2912 20.22 15.1762 20.105 15.0362 20.105H12.49V15.485C12.49 15.345 12.375 15.23 12.235 15.23H11.2887C11.1475 15.23 11.0337 15.3437 11.0337 15.485V21.3012V21.3062C11.0337 21.4475 11.1475 21.5612 11.2887 21.5612H15.035H15.0362Z" fill="#DEB283"/>
<path d="M17.2913 15.2313H16.3463C16.2054 15.2313 16.0913 15.3454 16.0913 15.4863V21.3063C16.0913 21.4471 16.2054 21.5613 16.3463 21.5613H17.2913C17.4321 21.5613 17.5463 21.4471 17.5463 21.3063V15.4863C17.5463 15.3454 17.4321 15.2313 17.2913 15.2313Z" fill="#DEB283"/>
<path d="M23.73 15.2313H22.7838C22.6425 15.2313 22.5288 15.345 22.5288 15.4863V18.9425L19.8663 15.3463C19.86 15.3375 19.8525 15.3288 19.8463 15.32C19.8463 15.32 19.8463 15.32 19.845 15.3188C19.84 15.3138 19.835 15.3075 19.83 15.3025C19.8288 15.3013 19.8263 15.3 19.825 15.2988C19.82 15.295 19.8163 15.2913 19.8113 15.2875C19.8088 15.2863 19.8063 15.2838 19.8038 15.2825C19.8 15.2788 19.795 15.2763 19.79 15.2738C19.7875 15.2725 19.785 15.27 19.7825 15.2688C19.7775 15.2663 19.7738 15.2638 19.7688 15.2613C19.7663 15.26 19.7638 15.2588 19.7613 15.2575C19.7563 15.255 19.7513 15.2525 19.7463 15.2513C19.7438 15.2513 19.7413 15.2488 19.7375 15.2488C19.7325 15.2475 19.7275 15.245 19.7225 15.2438C19.72 15.2438 19.7163 15.2425 19.7138 15.2413C19.7088 15.2413 19.7038 15.2388 19.6988 15.2375C19.695 15.2375 19.6913 15.2375 19.6875 15.2363C19.6825 15.2363 19.6788 15.235 19.6738 15.235C19.6688 15.235 19.665 15.235 19.66 15.235C19.6575 15.235 19.6538 15.235 19.6513 15.235H18.7113C18.5713 15.235 18.4563 15.3488 18.4563 15.49V21.31C18.4563 21.45 18.57 21.565 18.7113 21.565H19.6575C19.7988 21.565 19.9125 21.4513 19.9125 21.31V17.8538L22.5788 21.455C22.5975 21.4813 22.62 21.5025 22.645 21.5188C22.645 21.5188 22.6475 21.52 22.6475 21.5213C22.6525 21.525 22.6575 21.5275 22.6638 21.5313C22.6663 21.5325 22.6688 21.5338 22.6713 21.535C22.675 21.5375 22.68 21.5388 22.6838 21.5413C22.6875 21.5438 22.6925 21.545 22.6963 21.5463C22.6988 21.5463 22.7013 21.5488 22.7038 21.5488C22.71 21.5513 22.715 21.5525 22.7213 21.5538C22.7213 21.5538 22.7238 21.5538 22.725 21.5538C22.7463 21.5588 22.7688 21.5625 22.7913 21.5625H23.7313C23.8713 21.5625 23.9863 21.4488 23.9863 21.3075V15.4875C23.9863 15.3475 23.8725 15.2325 23.7313 15.2325L23.73 15.2313Z" fill="#DEB283"/>
</svg>
