<svg width="40" height="41" viewBox="0 0 40 41" fill="none" xmlns="http://www.w3.org/2000/svg">
<path d="M28.5035 0H11.4966C5.14718 0 0 5.14718 0 11.4966V29.1838C0 35.5332 5.14718 40.6804 11.4966 40.6804H28.5034C34.8529 40.6804 40 35.5332 40 29.1838V11.4966C40.0001 5.14718 34.8529 0 28.5035 0ZM4.08162 11.4966C4.08162 7.4078 7.4078 4.08162 11.4966 4.08162H28.5034C32.5922 4.08162 35.9184 7.4078 35.9184 11.4966V29.1838C35.9184 33.2726 32.5922 36.5987 28.5034 36.5987H11.4966C7.4078 36.5987 4.08162 33.2726 4.08162 29.1838V11.4966Z" fill="#DEB283"/>
<path d="M20.0001 30.8165C25.7766 30.8165 30.4763 26.117 30.4763 20.3405C30.4763 14.5639 25.7766 9.86407 20.0001 9.86407C14.2237 9.86407 9.52405 14.5639 9.52405 20.3405C9.52405 26.117 14.2236 30.8165 20.0001 30.8165ZM20.0001 13.1294C23.9762 13.1294 27.2109 16.3643 27.2109 20.3405C27.2109 24.3166 23.9762 27.5515 20.0001 27.5515C16.0241 27.5515 12.7894 24.3166 12.7894 20.3405C12.7894 16.3643 16.024 13.1294 20.0001 13.1294Z" fill="#DEB283"/>
<path d="M30.7824 11.9052C32.0786 11.9052 33.1294 10.8544 33.1294 9.55808C33.1294 8.26179 32.0786 7.21094 30.7824 7.21094C29.4862 7.21094 28.4355 8.26179 28.4355 9.55808C28.4355 10.8544 29.4862 11.9052 30.7824 11.9052Z" fill="#DEB283"/>
</svg>
