<svg width="40" height="41" viewBox="0 0 40 41" fill="none" xmlns="http://www.w3.org/2000/svg">
<path d="M28.5035 0.159668H11.4966C5.14718 0.159668 0 5.30685 0 11.6562V29.3435C0 35.6929 5.14718 40.84 11.4966 40.84H28.5034C34.8529 40.84 40 35.6929 40 29.3435V11.6562C40.0001 5.30685 34.8529 0.159668 28.5035 0.159668ZM4.08162 11.6562C4.08162 7.56747 7.4078 4.24129 11.4966 4.24129H28.5034C32.5922 4.24129 35.9184 7.56747 35.9184 11.6562V29.3435C35.9184 33.4322 32.5922 36.7584 28.5034 36.7584H11.4966C7.4078 36.7584 4.08162 33.4322 4.08162 29.3435V11.6562Z" fill="white"/>
<path d="M20.0001 30.9764C25.7766 30.9764 30.4762 26.2768 30.4762 20.5003C30.4762 14.7238 25.7766 10.0239 20.0001 10.0239C14.2236 10.0239 9.52399 14.7238 9.52399 20.5003C9.52399 26.2768 14.2235 30.9764 20.0001 30.9764ZM20.0001 13.2892C23.9762 13.2892 27.2108 16.5241 27.2108 20.5003C27.2108 24.4765 23.9762 27.7114 20.0001 27.7114C16.024 27.7114 12.7893 24.4765 12.7893 20.5003C12.7893 16.5241 16.0239 13.2892 20.0001 13.2892Z" fill="white"/>
<path d="M30.7825 12.0649C32.0787 12.0649 33.1295 11.014 33.1295 9.71775C33.1295 8.42146 32.0787 7.37061 30.7825 7.37061C29.4863 7.37061 28.4355 8.42146 28.4355 9.71775C28.4355 11.014 29.4863 12.0649 30.7825 12.0649Z" fill="white"/>
</svg>
