<svg width="40" height="41" viewBox="0 0 40 41" fill="none" xmlns="http://www.w3.org/2000/svg">
<path d="M30.9825 0.159668H9.0175C4.03727 0.159668 0 4.19694 0 9.17717V31.1422C0 36.1224 4.03727 40.1597 9.0175 40.1597H30.9825C35.9627 40.1597 40 36.1224 40 31.1422V9.17717C40 4.19694 35.9627 0.159668 30.9825 0.159668Z" fill="white"/>
<path d="M33.3325 18.2746C33.3325 12.3071 27.35 7.45215 19.9963 7.45215C12.6425 7.45215 6.66 12.3071 6.66 18.2746C6.66 23.6246 11.405 28.1046 17.8138 28.9521C18.2475 29.0459 18.8388 29.2384 18.9888 29.6096C19.1238 29.9471 19.0763 30.4746 19.0325 30.8159C19.0325 30.8159 18.8763 31.7571 18.8425 31.9571C18.7838 32.2946 18.575 33.2759 19.9975 32.6759C21.4213 32.0759 27.6775 28.1534 30.475 24.9334C32.4075 22.8134 33.3338 20.6634 33.3338 18.2746H33.3325Z" fill="#DEB283"/>
<path d="M28.895 21.7211H25.1487C25.0075 21.7211 24.8937 21.6074 24.8937 21.4661V21.4624V15.6524V15.6461C24.8937 15.5049 25.0075 15.3911 25.1487 15.3911H28.895C29.035 15.3911 29.15 15.5061 29.15 15.6461V16.5924C29.15 16.7336 29.0362 16.8474 28.895 16.8474H26.3487V17.8299H28.895C29.035 17.8299 29.15 17.9449 29.15 18.0849V19.0311C29.15 19.1724 29.0362 19.2861 28.895 19.2861H26.3487V20.2686H28.895C29.035 20.2686 29.15 20.3836 29.15 20.5236V21.4699C29.15 21.6111 29.0362 21.7249 28.895 21.7249V21.7211Z" fill="white"/>
<path d="M15.0363 21.7209C15.1763 21.7209 15.2913 21.6071 15.2913 21.4659V20.5196C15.2913 20.3796 15.1763 20.2646 15.0363 20.2646H12.49V15.6446C12.49 15.5046 12.375 15.3896 12.235 15.3896H11.2888C11.1475 15.3896 11.0338 15.5034 11.0338 15.6446V21.4609V21.4659C11.0338 21.6071 11.1475 21.7209 11.2888 21.7209H15.035H15.0363Z" fill="white"/>
<path d="M17.2912 15.3911H16.3462C16.2054 15.3911 16.0912 15.5053 16.0912 15.6461V21.4661C16.0912 21.6069 16.2054 21.7211 16.3462 21.7211H17.2912C17.4321 21.7211 17.5462 21.6069 17.5462 21.4661V15.6461C17.5462 15.5053 17.4321 15.3911 17.2912 15.3911Z" fill="white"/>
<path d="M23.73 15.3911H22.7837C22.6425 15.3911 22.5287 15.5049 22.5287 15.6461V19.1024L19.8662 15.5061C19.86 15.4974 19.8525 15.4886 19.8462 15.4799C19.8462 15.4799 19.8462 15.4799 19.845 15.4786C19.84 15.4736 19.835 15.4674 19.83 15.4624C19.8287 15.4611 19.8262 15.4599 19.825 15.4586C19.82 15.4549 19.8162 15.4511 19.8112 15.4474C19.8087 15.4461 19.8062 15.4436 19.8037 15.4424C19.8 15.4386 19.795 15.4361 19.79 15.4336C19.7875 15.4324 19.785 15.4299 19.7825 15.4286C19.7775 15.4261 19.7737 15.4236 19.7687 15.4211C19.7662 15.4199 19.7637 15.4186 19.7612 15.4174C19.7562 15.4149 19.7512 15.4124 19.7462 15.4111C19.7437 15.4111 19.7412 15.4086 19.7375 15.4086C19.7325 15.4074 19.7275 15.4049 19.7225 15.4036C19.72 15.4036 19.7162 15.4024 19.7137 15.4011C19.7087 15.4011 19.7037 15.3986 19.6987 15.3974C19.695 15.3974 19.6912 15.3974 19.6875 15.3961C19.6825 15.3961 19.6787 15.3949 19.6737 15.3949C19.6687 15.3949 19.665 15.3949 19.66 15.3949C19.6575 15.3949 19.6537 15.3949 19.6512 15.3949H18.7112C18.5712 15.3949 18.4562 15.5086 18.4562 15.6499V21.4699C18.4562 21.6099 18.57 21.7249 18.7112 21.7249H19.6575C19.7987 21.7249 19.9125 21.6111 19.9125 21.4699V18.0136L22.5787 21.6149C22.5975 21.6411 22.62 21.6624 22.645 21.6786C22.645 21.6786 22.6475 21.6799 22.6475 21.6811C22.6525 21.6849 22.6575 21.6874 22.6637 21.6911C22.6662 21.6924 22.6687 21.6936 22.6712 21.6949C22.675 21.6974 22.68 21.6986 22.6837 21.7011C22.6875 21.7036 22.6925 21.7049 22.6962 21.7061C22.6987 21.7061 22.7012 21.7086 22.7037 21.7086C22.71 21.7111 22.715 21.7124 22.7212 21.7136C22.7212 21.7136 22.7237 21.7136 22.725 21.7136C22.7462 21.7186 22.7687 21.7224 22.7912 21.7224H23.7312C23.8712 21.7224 23.9862 21.6086 23.9862 21.4674V15.6474C23.9862 15.5074 23.8725 15.3924 23.7312 15.3924L23.73 15.3911Z" fill="white"/>
</svg>
